G75*
%MOIN*%
%OFA0B0*%
%FSLAX24Y24*%
%IPPOS*%
%LPD*%
%AMOC8*
5,1,8,0,0,1.08239X$1,22.5*
%
%ADD10C,0.0000*%
%ADD11R,0.0118X0.0472*%
%ADD12R,0.0472X0.0118*%
%ADD13R,0.0433X0.0394*%
%ADD14R,0.0394X0.0433*%
%ADD15R,0.0591X0.0630*%
%ADD16R,0.0217X0.0472*%
%ADD17R,0.0236X0.0354*%
%ADD18R,0.0600X0.0165*%
%ADD19C,0.0074*%
%ADD20R,0.0800X0.0260*%
%ADD21C,0.0157*%
D10*
X000180Y000180D02*
X000180Y019176D01*
X020550Y019176D01*
X020550Y000180D01*
X000180Y000180D01*
D11*
X006954Y008186D03*
X007150Y008186D03*
X007347Y008186D03*
X007544Y008186D03*
X007741Y008186D03*
X007938Y008186D03*
X008135Y008186D03*
X008332Y008186D03*
X008528Y008186D03*
X008725Y008186D03*
X008922Y008186D03*
X009119Y008186D03*
X009316Y008186D03*
X009513Y008186D03*
X009710Y008186D03*
X009906Y008186D03*
X009906Y012674D03*
X009710Y012674D03*
X009513Y012674D03*
X009316Y012674D03*
X009119Y012674D03*
X008922Y012674D03*
X008725Y012674D03*
X008528Y012674D03*
X008332Y012674D03*
X008135Y012674D03*
X007938Y012674D03*
X007741Y012674D03*
X007544Y012674D03*
X007347Y012674D03*
X007150Y012674D03*
X006954Y012674D03*
D12*
X006186Y011906D03*
X006186Y011710D03*
X006186Y011513D03*
X006186Y011316D03*
X006186Y011119D03*
X006186Y010922D03*
X006186Y010725D03*
X006186Y010528D03*
X006186Y010332D03*
X006186Y010135D03*
X006186Y009938D03*
X006186Y009741D03*
X006186Y009544D03*
X006186Y009347D03*
X006186Y009150D03*
X006186Y008954D03*
X010674Y008954D03*
X010674Y009150D03*
X010674Y009347D03*
X010674Y009544D03*
X010674Y009741D03*
X010674Y009938D03*
X010674Y010135D03*
X010674Y010332D03*
X010674Y010528D03*
X010674Y010725D03*
X010674Y010922D03*
X010674Y011119D03*
X010674Y011316D03*
X010674Y011513D03*
X010674Y011710D03*
X010674Y011906D03*
D13*
X011930Y012408D03*
X011930Y013077D03*
X012095Y011743D03*
X012095Y011055D03*
X012095Y010305D03*
X012095Y009618D03*
X012765Y009618D03*
X012765Y010305D03*
X012765Y011055D03*
X012765Y011743D03*
X012765Y008868D03*
X012765Y008180D03*
X012095Y008180D03*
X011577Y008180D03*
X010908Y008180D03*
X010908Y007493D03*
X011577Y007493D03*
X012095Y008868D03*
X012243Y004640D03*
X012243Y003970D03*
X012930Y003970D03*
X012930Y004640D03*
X009180Y004390D03*
X009180Y003720D03*
X009180Y003140D03*
X009180Y002470D03*
X004765Y006555D03*
X004095Y006555D03*
X004095Y007243D03*
X004765Y007243D03*
X004765Y007993D03*
X004095Y007993D03*
X004095Y008680D03*
X004765Y008680D03*
X004765Y009368D03*
X004095Y009368D03*
X004095Y010055D03*
X004765Y010055D03*
X004765Y010743D03*
X004095Y010743D03*
X004095Y011493D03*
X004765Y011493D03*
X004765Y012180D03*
X004095Y012180D03*
X004095Y012868D03*
X004765Y012868D03*
X004765Y013555D03*
X004095Y013555D03*
X006680Y015845D03*
X006680Y016515D03*
X007680Y016515D03*
X007680Y015845D03*
X008680Y015845D03*
X008680Y016515D03*
X009680Y016515D03*
X009680Y015845D03*
X010680Y015845D03*
X010680Y016515D03*
X011680Y016515D03*
X011680Y015845D03*
X012680Y015845D03*
X012680Y016515D03*
X013680Y016515D03*
X013680Y015845D03*
X014680Y015845D03*
X014680Y016515D03*
D14*
X014993Y014140D03*
X014993Y013470D03*
X015680Y013470D03*
X015680Y014140D03*
X015680Y012140D03*
X015680Y011470D03*
X015680Y009890D03*
X015680Y009220D03*
X014993Y009220D03*
X014993Y009890D03*
X014993Y007765D03*
X014993Y007095D03*
X015680Y007095D03*
X015680Y007765D03*
X017930Y007765D03*
X017930Y007095D03*
X018618Y007095D03*
X018618Y007765D03*
X018618Y009220D03*
X018618Y009890D03*
X017930Y009890D03*
X017930Y009220D03*
X017930Y011470D03*
X017930Y012140D03*
X017930Y013470D03*
X017930Y014140D03*
X018618Y014140D03*
X018618Y013470D03*
X012743Y013077D03*
X012743Y012408D03*
X011577Y006805D03*
X010908Y006805D03*
X012243Y005827D03*
X012243Y005158D03*
X012930Y005158D03*
X012930Y005827D03*
X017930Y005640D03*
X017930Y004970D03*
X018618Y004970D03*
X018618Y005640D03*
X007890Y004305D03*
X007220Y004305D03*
X006702Y004305D03*
X006033Y004305D03*
X006930Y005283D03*
X006930Y005952D03*
X002890Y006805D03*
X002220Y006805D03*
D15*
X007727Y006422D03*
X008633Y006422D03*
X008633Y005438D03*
X007727Y005438D03*
D16*
X016431Y006918D03*
X016805Y006918D03*
X017179Y006918D03*
X017179Y007942D03*
X016431Y007942D03*
X016431Y009043D03*
X016805Y009043D03*
X017179Y009043D03*
X017179Y010067D03*
X016431Y010067D03*
X016431Y013293D03*
X016805Y013293D03*
X017179Y013293D03*
X017179Y014317D03*
X016431Y014317D03*
D17*
X016431Y012258D03*
X016805Y012258D03*
X017179Y012258D03*
X017179Y011352D03*
X016805Y011352D03*
X016431Y011352D03*
D18*
X016857Y003153D03*
D19*
X017120Y003364D02*
X017120Y003454D01*
X017120Y003364D02*
X016594Y003364D01*
X016594Y003454D01*
X017120Y003454D01*
X017120Y003437D02*
X016594Y003437D01*
X017120Y003620D02*
X017120Y003710D01*
X017120Y003620D02*
X016594Y003620D01*
X016594Y003710D01*
X017120Y003710D01*
X017120Y003693D02*
X016594Y003693D01*
X017120Y003876D02*
X017120Y003966D01*
X017120Y003876D02*
X016594Y003876D01*
X016594Y003966D01*
X017120Y003966D01*
X017120Y003949D02*
X016594Y003949D01*
X017120Y004132D02*
X017120Y004222D01*
X017120Y004132D02*
X016594Y004132D01*
X016594Y004222D01*
X017120Y004222D01*
X017120Y004205D02*
X016594Y004205D01*
X017120Y004388D02*
X017120Y004478D01*
X017120Y004388D02*
X016594Y004388D01*
X016594Y004478D01*
X017120Y004478D01*
X017120Y004461D02*
X016594Y004461D01*
X017120Y004644D02*
X017120Y004734D01*
X017120Y004644D02*
X016594Y004644D01*
X016594Y004734D01*
X017120Y004734D01*
X017120Y004717D02*
X016594Y004717D01*
X017120Y004900D02*
X017120Y004990D01*
X017120Y004900D02*
X016594Y004900D01*
X016594Y004990D01*
X017120Y004990D01*
X017120Y004973D02*
X016594Y004973D01*
X017120Y005156D02*
X017120Y005246D01*
X017120Y005156D02*
X016594Y005156D01*
X016594Y005246D01*
X017120Y005246D01*
X017120Y005229D02*
X016594Y005229D01*
X017120Y005412D02*
X017120Y005502D01*
X017120Y005412D02*
X016594Y005412D01*
X016594Y005502D01*
X017120Y005502D01*
X017120Y005485D02*
X016594Y005485D01*
X014266Y005502D02*
X014266Y005412D01*
X013740Y005412D01*
X013740Y005502D01*
X014266Y005502D01*
X014266Y005485D02*
X013740Y005485D01*
X014266Y005246D02*
X014266Y005156D01*
X013740Y005156D01*
X013740Y005246D01*
X014266Y005246D01*
X014266Y005229D02*
X013740Y005229D01*
X014266Y004990D02*
X014266Y004900D01*
X013740Y004900D01*
X013740Y004990D01*
X014266Y004990D01*
X014266Y004973D02*
X013740Y004973D01*
X014266Y004734D02*
X014266Y004644D01*
X013740Y004644D01*
X013740Y004734D01*
X014266Y004734D01*
X014266Y004717D02*
X013740Y004717D01*
X014266Y004478D02*
X014266Y004388D01*
X013740Y004388D01*
X013740Y004478D01*
X014266Y004478D01*
X014266Y004461D02*
X013740Y004461D01*
X014266Y004222D02*
X014266Y004132D01*
X013740Y004132D01*
X013740Y004222D01*
X014266Y004222D01*
X014266Y004205D02*
X013740Y004205D01*
X014266Y003966D02*
X014266Y003876D01*
X013740Y003876D01*
X013740Y003966D01*
X014266Y003966D01*
X014266Y003949D02*
X013740Y003949D01*
X014266Y003710D02*
X014266Y003620D01*
X013740Y003620D01*
X013740Y003710D01*
X014266Y003710D01*
X014266Y003693D02*
X013740Y003693D01*
X014266Y003454D02*
X014266Y003364D01*
X013740Y003364D01*
X013740Y003454D01*
X014266Y003454D01*
X014266Y003437D02*
X013740Y003437D01*
X014266Y003198D02*
X014266Y003108D01*
X013740Y003108D01*
X013740Y003198D01*
X014266Y003198D01*
X014266Y003181D02*
X013740Y003181D01*
D20*
X004890Y003305D03*
X004890Y002805D03*
X004890Y002305D03*
X004890Y003805D03*
X004890Y004305D03*
X004890Y004805D03*
X004890Y005305D03*
X004890Y005805D03*
X002470Y005805D03*
X002470Y005305D03*
X002470Y004805D03*
X002470Y004305D03*
X002470Y003805D03*
X002470Y003305D03*
X002470Y002805D03*
X002470Y002305D03*
D21*
X005928Y002799D02*
X005928Y002799D01*
X006106Y002799D01*
X006106Y002799D01*
X005928Y002799D01*
X005928Y003055D02*
X005928Y003055D01*
X006106Y003055D01*
X006106Y003055D01*
X005928Y003055D01*
X005928Y003311D02*
X005928Y003311D01*
X006106Y003311D01*
X006106Y003311D01*
X005928Y003311D01*
X006754Y003311D02*
X006754Y003311D01*
X006932Y003311D01*
X006932Y003311D01*
X006754Y003311D01*
X006754Y003055D02*
X006754Y003055D01*
X006932Y003055D01*
X006932Y003055D01*
X006754Y003055D01*
X006754Y002799D02*
X006754Y002799D01*
X006932Y002799D01*
X006932Y002799D01*
X006754Y002799D01*
M02*
