G75*
%MOIN*%
%OFA0B0*%
%FSLAX24Y24*%
%IPPOS*%
%LPD*%
%AMOC8*
5,1,8,0,0,1.08239X$1,22.5*
%
%ADD10C,0.0000*%
%ADD11C,0.0600*%
%ADD12C,0.0472*%
%ADD13R,0.0460X0.0630*%
%ADD14C,0.0238*%
%ADD15C,0.0100*%
%ADD16C,0.0160*%
%ADD17C,0.0240*%
D10*
X000180Y000180D02*
X000180Y019176D01*
X020550Y019176D01*
X020550Y000180D01*
X000180Y000180D01*
D11*
X007180Y001255D02*
X007180Y001855D01*
X008180Y001855D02*
X008180Y001255D01*
X009180Y001255D02*
X009180Y001855D01*
X010180Y001855D02*
X010180Y001255D01*
X011180Y001255D02*
X011180Y001855D01*
X012180Y001855D02*
X012180Y001255D01*
X013180Y001255D02*
X013180Y001855D01*
X014180Y001855D02*
X014180Y001255D01*
X015180Y001255D02*
X015180Y001855D01*
X014680Y017380D02*
X014680Y017980D01*
X013680Y017980D02*
X013680Y017380D01*
X012680Y017380D02*
X012680Y017980D01*
X011680Y017980D02*
X011680Y017380D01*
X010680Y017380D02*
X010680Y017980D01*
X009680Y017980D02*
X009680Y017380D01*
X008680Y017380D02*
X008680Y017980D01*
X007680Y017980D02*
X007680Y017380D01*
X006680Y017380D02*
X006680Y017980D01*
X005680Y017980D02*
X005680Y017380D01*
X004680Y017380D02*
X004680Y017980D01*
X015680Y017980D02*
X015680Y017380D01*
X016680Y017380D02*
X016680Y017980D01*
X017680Y017980D02*
X017680Y017380D01*
D12*
X019930Y016930D03*
X019930Y015930D03*
X019930Y014930D03*
X019930Y013930D03*
X019930Y012930D03*
X019930Y011930D03*
X019930Y009930D03*
X019930Y008930D03*
X019930Y007930D03*
X019930Y006930D03*
X019930Y005930D03*
X019930Y004930D03*
X000930Y005180D03*
X000930Y006180D03*
X000930Y007180D03*
X000930Y008180D03*
X000930Y009930D03*
X000930Y010930D03*
X000930Y011930D03*
X000930Y012930D03*
X000930Y013930D03*
X000930Y014930D03*
X000930Y015930D03*
X000930Y016930D03*
X000930Y004180D03*
X000930Y003180D03*
X000930Y002180D03*
X000930Y001180D03*
D13*
X006580Y002805D03*
X007180Y002805D03*
X007780Y002805D03*
D14*
X007743Y003430D03*
X008118Y003618D03*
X009180Y004805D03*
X010493Y006805D03*
X009743Y007055D03*
X008922Y007375D03*
X008618Y007680D03*
X008305Y007368D03*
X008055Y007680D03*
X007180Y006805D03*
X007180Y006368D03*
X006743Y004805D03*
X005555Y004305D03*
X005555Y003805D03*
X005555Y005805D03*
X003618Y006555D03*
X003618Y007243D03*
X005805Y008618D03*
X006930Y010305D03*
X007805Y008930D03*
X008555Y008680D03*
X009243Y008930D03*
X009618Y008930D03*
X010430Y008180D03*
X011243Y009305D03*
X011618Y011055D03*
X010118Y011930D03*
X013180Y011743D03*
X014555Y009930D03*
X013180Y008868D03*
X013180Y008180D03*
X014555Y007743D03*
X016618Y007430D03*
X016993Y007430D03*
X017555Y007055D03*
X017555Y009180D03*
X016993Y009555D03*
X016618Y009555D03*
X016805Y010993D03*
X016618Y011805D03*
X016993Y011805D03*
X016993Y013805D03*
X016618Y013805D03*
X012055Y006805D03*
X013430Y005180D03*
X013555Y004305D03*
X013555Y003805D03*
X013555Y003305D03*
X005555Y001743D03*
X004368Y001930D03*
X003868Y001055D03*
X001805Y003305D03*
X001805Y004305D03*
X001805Y004805D03*
X003618Y011493D03*
X003618Y012180D03*
X003618Y012868D03*
X003618Y013555D03*
X005243Y011493D03*
D15*
X004680Y012055D01*
X004680Y017680D01*
X005090Y017713D02*
X005270Y017713D01*
X005270Y017615D02*
X005090Y017615D01*
X005090Y017516D02*
X005270Y017516D01*
X005270Y017418D02*
X005090Y017418D01*
X005090Y017319D02*
X005270Y017319D01*
X005270Y017298D02*
X005332Y017148D01*
X005448Y017032D01*
X005598Y016970D01*
X005762Y016970D01*
X005912Y017032D01*
X006028Y017148D01*
X006090Y017298D01*
X006090Y018062D01*
X006028Y018212D01*
X005912Y018328D01*
X005762Y018390D01*
X005598Y018390D01*
X005448Y018328D01*
X005332Y018212D01*
X005270Y018062D01*
X005270Y017298D01*
X005302Y017221D02*
X005058Y017221D01*
X005028Y017148D02*
X005090Y017298D01*
X005090Y018062D01*
X005028Y018212D01*
X004912Y018328D01*
X004762Y018390D01*
X004598Y018390D01*
X004448Y018328D01*
X004332Y018212D01*
X004270Y018062D01*
X004270Y017298D01*
X004332Y017148D01*
X004448Y017032D01*
X004520Y017002D01*
X004520Y011989D01*
X005013Y011496D01*
X005013Y011397D01*
X006335Y010075D01*
X006525Y010075D01*
X007025Y010075D01*
X007160Y010210D01*
X007160Y010400D01*
X007025Y010535D01*
X006525Y010535D01*
X005338Y011722D01*
X005239Y011722D01*
X004840Y012121D01*
X004840Y017002D01*
X004912Y017032D01*
X005028Y017148D01*
X005002Y017122D02*
X005358Y017122D01*
X005469Y017024D02*
X004891Y017024D01*
X004840Y016925D02*
X017450Y016925D01*
X017450Y016827D02*
X004840Y016827D01*
X004840Y016728D02*
X017450Y016728D01*
X017450Y016630D02*
X004840Y016630D01*
X004840Y016531D02*
X017450Y016531D01*
X017450Y016433D02*
X004840Y016433D01*
X004840Y016334D02*
X017450Y016334D01*
X017450Y016236D02*
X004840Y016236D01*
X004840Y016137D02*
X017450Y016137D01*
X017450Y016039D02*
X004840Y016039D01*
X004840Y015940D02*
X017365Y015940D01*
X017450Y016025D02*
X014460Y013035D01*
X014325Y012900D01*
X014325Y011285D01*
X011522Y011285D01*
X011388Y011150D01*
X011388Y010960D01*
X011522Y010825D01*
X014325Y010825D01*
X014325Y009835D01*
X014460Y009700D01*
X014650Y009700D01*
X014785Y009835D01*
X014785Y012710D01*
X017910Y015835D01*
X017910Y017031D01*
X017912Y017032D01*
X017990Y017110D01*
X017990Y007134D01*
X014990Y004134D01*
X014990Y002220D01*
X014948Y002203D01*
X014832Y002087D01*
X014770Y001937D01*
X014770Y001173D01*
X014832Y001023D01*
X014948Y000907D01*
X015098Y000845D01*
X015262Y000845D01*
X015412Y000907D01*
X015528Y001023D01*
X015590Y001173D01*
X015590Y001937D01*
X015528Y002087D01*
X015412Y002203D01*
X015370Y002220D01*
X015370Y003976D01*
X018259Y006865D01*
X018370Y006976D01*
X018370Y018259D01*
X017995Y018634D01*
X017884Y018745D01*
X015851Y018745D01*
X015601Y018495D01*
X015490Y018384D01*
X015490Y018345D01*
X015448Y018328D01*
X015332Y018212D01*
X015270Y018062D01*
X015270Y017298D01*
X015332Y017148D01*
X015448Y017032D01*
X015598Y016970D01*
X015762Y016970D01*
X015912Y017032D01*
X016028Y017148D01*
X016090Y017298D01*
X016090Y018062D01*
X016028Y018212D01*
X015942Y018298D01*
X016009Y018365D01*
X017538Y018365D01*
X017448Y018328D01*
X017332Y018212D01*
X017270Y018062D01*
X017270Y017298D01*
X017332Y017148D01*
X017448Y017032D01*
X017450Y017031D01*
X017450Y016025D01*
X017266Y015842D02*
X004840Y015842D01*
X004840Y015743D02*
X017168Y015743D01*
X017069Y015645D02*
X004840Y015645D01*
X004840Y015546D02*
X016971Y015546D01*
X016872Y015448D02*
X004840Y015448D01*
X004840Y015349D02*
X016774Y015349D01*
X016675Y015251D02*
X004840Y015251D01*
X004840Y015152D02*
X016577Y015152D01*
X016478Y015054D02*
X004840Y015054D01*
X004840Y014955D02*
X016380Y014955D01*
X016281Y014857D02*
X004840Y014857D01*
X004840Y014758D02*
X016183Y014758D01*
X016084Y014660D02*
X004840Y014660D01*
X004840Y014561D02*
X015986Y014561D01*
X015887Y014463D02*
X004840Y014463D01*
X004840Y014364D02*
X015789Y014364D01*
X015690Y014266D02*
X004840Y014266D01*
X004840Y014167D02*
X015592Y014167D01*
X015493Y014069D02*
X004840Y014069D01*
X004840Y013970D02*
X015395Y013970D01*
X015296Y013872D02*
X004840Y013872D01*
X004840Y013773D02*
X015198Y013773D01*
X015099Y013675D02*
X004840Y013675D01*
X004840Y013576D02*
X015001Y013576D01*
X014902Y013478D02*
X004840Y013478D01*
X004840Y013379D02*
X014804Y013379D01*
X014705Y013281D02*
X004840Y013281D01*
X004840Y013182D02*
X014607Y013182D01*
X014508Y013084D02*
X004840Y013084D01*
X004840Y012985D02*
X014410Y012985D01*
X014325Y012887D02*
X004840Y012887D01*
X004840Y012788D02*
X014325Y012788D01*
X014325Y012690D02*
X004840Y012690D01*
X004840Y012591D02*
X014325Y012591D01*
X014325Y012493D02*
X004840Y012493D01*
X004840Y012394D02*
X014325Y012394D01*
X014325Y012296D02*
X004840Y012296D01*
X004840Y012197D02*
X014325Y012197D01*
X014325Y012099D02*
X004863Y012099D01*
X004961Y012000D02*
X014325Y012000D01*
X014325Y011902D02*
X005060Y011902D01*
X005158Y011803D02*
X014325Y011803D01*
X014325Y011705D02*
X005356Y011705D01*
X005454Y011606D02*
X014325Y011606D01*
X014325Y011508D02*
X005553Y011508D01*
X005651Y011409D02*
X014325Y011409D01*
X014325Y011311D02*
X005750Y011311D01*
X005848Y011212D02*
X011449Y011212D01*
X011388Y011114D02*
X005947Y011114D01*
X006045Y011015D02*
X011388Y011015D01*
X011431Y010917D02*
X006144Y010917D01*
X006242Y010818D02*
X014325Y010818D01*
X014325Y010720D02*
X006341Y010720D01*
X006439Y010621D02*
X014325Y010621D01*
X014325Y010523D02*
X007038Y010523D01*
X007136Y010424D02*
X014325Y010424D01*
X014325Y010326D02*
X007160Y010326D01*
X007160Y010227D02*
X014325Y010227D01*
X014325Y010129D02*
X007079Y010129D01*
X006281Y010129D02*
X001221Y010129D01*
X001224Y010126D02*
X001126Y010224D01*
X000999Y010276D01*
X000861Y010276D01*
X000734Y010224D01*
X000636Y010126D01*
X000584Y009999D01*
X000584Y009861D01*
X000636Y009734D01*
X000734Y009636D01*
X000861Y009584D01*
X000999Y009584D01*
X001126Y009636D01*
X001224Y009734D01*
X001276Y009861D01*
X001276Y009999D01*
X001224Y010126D01*
X001263Y010030D02*
X014325Y010030D01*
X014325Y009932D02*
X001276Y009932D01*
X001265Y009833D02*
X014327Y009833D01*
X014425Y009735D02*
X001224Y009735D01*
X001125Y009636D02*
X017325Y009636D01*
X017325Y009538D02*
X000330Y009538D01*
X000330Y009636D02*
X000735Y009636D01*
X000636Y009735D02*
X000330Y009735D01*
X000330Y009833D02*
X000595Y009833D01*
X000584Y009932D02*
X000330Y009932D01*
X000330Y010030D02*
X000597Y010030D01*
X000639Y010129D02*
X000330Y010129D01*
X000330Y010227D02*
X000742Y010227D01*
X000861Y010584D02*
X000734Y010636D01*
X000636Y010734D01*
X000584Y010861D01*
X000584Y010999D01*
X000636Y011126D01*
X000734Y011224D01*
X000861Y011276D01*
X000999Y011276D01*
X001126Y011224D01*
X001224Y011126D01*
X001276Y010999D01*
X001276Y010861D01*
X001224Y010734D01*
X001126Y010636D01*
X000999Y010584D01*
X000861Y010584D01*
X000771Y010621D02*
X000330Y010621D01*
X000330Y010523D02*
X005887Y010523D01*
X005789Y010621D02*
X001089Y010621D01*
X001209Y010720D02*
X005690Y010720D01*
X005592Y010818D02*
X001258Y010818D01*
X001276Y010917D02*
X005493Y010917D01*
X005395Y011015D02*
X001270Y011015D01*
X001229Y011114D02*
X005296Y011114D01*
X005198Y011212D02*
X001138Y011212D01*
X000999Y011584D02*
X001126Y011636D01*
X001224Y011734D01*
X001276Y011861D01*
X001276Y011999D01*
X001224Y012126D01*
X001126Y012224D01*
X000999Y012276D01*
X000861Y012276D01*
X000734Y012224D01*
X000636Y012126D01*
X000584Y011999D01*
X000584Y011861D01*
X000636Y011734D01*
X000734Y011636D01*
X000861Y011584D01*
X000999Y011584D01*
X001053Y011606D02*
X004903Y011606D01*
X005001Y011508D02*
X000330Y011508D01*
X000330Y011606D02*
X000807Y011606D01*
X000666Y011705D02*
X000330Y011705D01*
X000330Y011803D02*
X000608Y011803D01*
X000584Y011902D02*
X000330Y011902D01*
X000330Y012000D02*
X000584Y012000D01*
X000625Y012099D02*
X000330Y012099D01*
X000330Y012197D02*
X000707Y012197D01*
X000330Y012296D02*
X004520Y012296D01*
X004520Y012394D02*
X000330Y012394D01*
X000330Y012493D02*
X004520Y012493D01*
X004520Y012591D02*
X001016Y012591D01*
X000999Y012584D02*
X001126Y012636D01*
X001224Y012734D01*
X001276Y012861D01*
X001276Y012999D01*
X001224Y013126D01*
X001126Y013224D01*
X000999Y013276D01*
X000861Y013276D01*
X000734Y013224D01*
X000636Y013126D01*
X000584Y012999D01*
X000584Y012861D01*
X000636Y012734D01*
X000734Y012636D01*
X000861Y012584D01*
X000999Y012584D01*
X000844Y012591D02*
X000330Y012591D01*
X000330Y012690D02*
X000681Y012690D01*
X000614Y012788D02*
X000330Y012788D01*
X000330Y012887D02*
X000584Y012887D01*
X000584Y012985D02*
X000330Y012985D01*
X000330Y013084D02*
X000619Y013084D01*
X000692Y013182D02*
X000330Y013182D01*
X000330Y013281D02*
X004520Y013281D01*
X004520Y013379D02*
X000330Y013379D01*
X000330Y013478D02*
X004520Y013478D01*
X004520Y013576D02*
X000330Y013576D01*
X000330Y013675D02*
X000696Y013675D01*
X000734Y013636D02*
X000861Y013584D01*
X000999Y013584D01*
X001126Y013636D01*
X001224Y013734D01*
X001276Y013861D01*
X001276Y013999D01*
X001224Y014126D01*
X001126Y014224D01*
X000999Y014276D01*
X000861Y014276D01*
X000734Y014224D01*
X000636Y014126D01*
X000584Y013999D01*
X000584Y013861D01*
X000636Y013734D01*
X000734Y013636D01*
X000620Y013773D02*
X000330Y013773D01*
X000330Y013872D02*
X000584Y013872D01*
X000584Y013970D02*
X000330Y013970D01*
X000330Y014069D02*
X000613Y014069D01*
X000677Y014167D02*
X000330Y014167D01*
X000330Y014266D02*
X000835Y014266D01*
X001025Y014266D02*
X004520Y014266D01*
X004520Y014364D02*
X000330Y014364D01*
X000330Y014463D02*
X004520Y014463D01*
X004520Y014561D02*
X000330Y014561D01*
X000330Y014660D02*
X000711Y014660D01*
X000734Y014636D02*
X000636Y014734D01*
X000584Y014861D01*
X000584Y014999D01*
X000636Y015126D01*
X000734Y015224D01*
X000861Y015276D01*
X000999Y015276D01*
X001126Y015224D01*
X001224Y015126D01*
X001276Y014999D01*
X001276Y014861D01*
X001224Y014734D01*
X001126Y014636D01*
X000999Y014584D01*
X000861Y014584D01*
X000734Y014636D01*
X000626Y014758D02*
X000330Y014758D01*
X000330Y014857D02*
X000586Y014857D01*
X000584Y014955D02*
X000330Y014955D01*
X000330Y015054D02*
X000606Y015054D01*
X000662Y015152D02*
X000330Y015152D01*
X000330Y015251D02*
X000799Y015251D01*
X001061Y015251D02*
X004520Y015251D01*
X004520Y015349D02*
X000330Y015349D01*
X000330Y015448D02*
X004520Y015448D01*
X004520Y015546D02*
X000330Y015546D01*
X000330Y015645D02*
X000726Y015645D01*
X000734Y015636D02*
X000861Y015584D01*
X000999Y015584D01*
X001126Y015636D01*
X001224Y015734D01*
X001276Y015861D01*
X001276Y015999D01*
X001224Y016126D01*
X001126Y016224D01*
X000999Y016276D01*
X000861Y016276D01*
X000734Y016224D01*
X000636Y016126D01*
X000584Y015999D01*
X000584Y015861D01*
X000636Y015734D01*
X000734Y015636D01*
X000633Y015743D02*
X000330Y015743D01*
X000330Y015842D02*
X000592Y015842D01*
X000584Y015940D02*
X000330Y015940D01*
X000330Y016039D02*
X000600Y016039D01*
X000647Y016137D02*
X000330Y016137D01*
X000330Y016236D02*
X000763Y016236D01*
X000861Y016584D02*
X000999Y016584D01*
X001126Y016636D01*
X001224Y016734D01*
X001276Y016861D01*
X001276Y016999D01*
X001224Y017126D01*
X001126Y017224D01*
X000999Y017276D01*
X000861Y017276D01*
X000734Y017224D01*
X000636Y017126D01*
X000584Y016999D01*
X000584Y016861D01*
X000636Y016734D01*
X000734Y016636D01*
X000861Y016584D01*
X000751Y016630D02*
X000330Y016630D01*
X000330Y016728D02*
X000642Y016728D01*
X000598Y016827D02*
X000330Y016827D01*
X000330Y016925D02*
X000584Y016925D01*
X000594Y017024D02*
X000330Y017024D01*
X000330Y017122D02*
X000635Y017122D01*
X000731Y017221D02*
X000330Y017221D01*
X000330Y017319D02*
X004270Y017319D01*
X004270Y017418D02*
X000330Y017418D01*
X000330Y017516D02*
X004270Y017516D01*
X004270Y017615D02*
X000330Y017615D01*
X000330Y017713D02*
X004270Y017713D01*
X004270Y017812D02*
X000330Y017812D01*
X000330Y017910D02*
X004270Y017910D01*
X004270Y018009D02*
X000330Y018009D01*
X000330Y018107D02*
X004289Y018107D01*
X004330Y018206D02*
X000330Y018206D01*
X000330Y018304D02*
X004424Y018304D01*
X004936Y018304D02*
X005424Y018304D01*
X005330Y018206D02*
X005030Y018206D01*
X005071Y018107D02*
X005289Y018107D01*
X005270Y018009D02*
X005090Y018009D01*
X005090Y017910D02*
X005270Y017910D01*
X005270Y017812D02*
X005090Y017812D01*
X005936Y018304D02*
X006424Y018304D01*
X006448Y018328D02*
X006332Y018212D01*
X006270Y018062D01*
X006270Y017298D01*
X006332Y017148D01*
X006448Y017032D01*
X006598Y016970D01*
X006762Y016970D01*
X006912Y017032D01*
X007028Y017148D01*
X007090Y017298D01*
X007090Y018062D01*
X007028Y018212D01*
X006912Y018328D01*
X006762Y018390D01*
X006598Y018390D01*
X006448Y018328D01*
X006330Y018206D02*
X006030Y018206D01*
X006071Y018107D02*
X006289Y018107D01*
X006270Y018009D02*
X006090Y018009D01*
X006090Y017910D02*
X006270Y017910D01*
X006270Y017812D02*
X006090Y017812D01*
X006090Y017713D02*
X006270Y017713D01*
X006270Y017615D02*
X006090Y017615D01*
X006090Y017516D02*
X006270Y017516D01*
X006270Y017418D02*
X006090Y017418D01*
X006090Y017319D02*
X006270Y017319D01*
X006302Y017221D02*
X006058Y017221D01*
X006002Y017122D02*
X006358Y017122D01*
X006469Y017024D02*
X005891Y017024D01*
X006891Y017024D02*
X007469Y017024D01*
X007448Y017032D02*
X007598Y016970D01*
X007762Y016970D01*
X007912Y017032D01*
X008028Y017148D01*
X008090Y017298D01*
X008090Y018062D01*
X008028Y018212D01*
X007912Y018328D01*
X007762Y018390D01*
X007598Y018390D01*
X007448Y018328D01*
X007332Y018212D01*
X007270Y018062D01*
X007270Y017298D01*
X007332Y017148D01*
X007448Y017032D01*
X007358Y017122D02*
X007002Y017122D01*
X007058Y017221D02*
X007302Y017221D01*
X007270Y017319D02*
X007090Y017319D01*
X007090Y017418D02*
X007270Y017418D01*
X007270Y017516D02*
X007090Y017516D01*
X007090Y017615D02*
X007270Y017615D01*
X007270Y017713D02*
X007090Y017713D01*
X007090Y017812D02*
X007270Y017812D01*
X007270Y017910D02*
X007090Y017910D01*
X007090Y018009D02*
X007270Y018009D01*
X007289Y018107D02*
X007071Y018107D01*
X007030Y018206D02*
X007330Y018206D01*
X007424Y018304D02*
X006936Y018304D01*
X007936Y018304D02*
X008424Y018304D01*
X008448Y018328D02*
X008332Y018212D01*
X008270Y018062D01*
X008270Y017298D01*
X008332Y017148D01*
X008448Y017032D01*
X008598Y016970D01*
X008762Y016970D01*
X008912Y017032D01*
X009028Y017148D01*
X009090Y017298D01*
X009090Y018062D01*
X009028Y018212D01*
X008912Y018328D01*
X008762Y018390D01*
X008598Y018390D01*
X008448Y018328D01*
X008330Y018206D02*
X008030Y018206D01*
X008071Y018107D02*
X008289Y018107D01*
X008270Y018009D02*
X008090Y018009D01*
X008090Y017910D02*
X008270Y017910D01*
X008270Y017812D02*
X008090Y017812D01*
X008090Y017713D02*
X008270Y017713D01*
X008270Y017615D02*
X008090Y017615D01*
X008090Y017516D02*
X008270Y017516D01*
X008270Y017418D02*
X008090Y017418D01*
X008090Y017319D02*
X008270Y017319D01*
X008302Y017221D02*
X008058Y017221D01*
X008002Y017122D02*
X008358Y017122D01*
X008469Y017024D02*
X007891Y017024D01*
X008891Y017024D02*
X009469Y017024D01*
X009448Y017032D02*
X009598Y016970D01*
X009762Y016970D01*
X009912Y017032D01*
X010028Y017148D01*
X010090Y017298D01*
X010090Y018062D01*
X010028Y018212D01*
X009912Y018328D01*
X009762Y018390D01*
X009598Y018390D01*
X009448Y018328D01*
X009332Y018212D01*
X009270Y018062D01*
X009270Y017298D01*
X009332Y017148D01*
X009448Y017032D01*
X009358Y017122D02*
X009002Y017122D01*
X009058Y017221D02*
X009302Y017221D01*
X009270Y017319D02*
X009090Y017319D01*
X009090Y017418D02*
X009270Y017418D01*
X009270Y017516D02*
X009090Y017516D01*
X009090Y017615D02*
X009270Y017615D01*
X009270Y017713D02*
X009090Y017713D01*
X009090Y017812D02*
X009270Y017812D01*
X009270Y017910D02*
X009090Y017910D01*
X009090Y018009D02*
X009270Y018009D01*
X009289Y018107D02*
X009071Y018107D01*
X009030Y018206D02*
X009330Y018206D01*
X009424Y018304D02*
X008936Y018304D01*
X009936Y018304D02*
X010424Y018304D01*
X010448Y018328D02*
X010332Y018212D01*
X010270Y018062D01*
X010270Y017298D01*
X010332Y017148D01*
X010448Y017032D01*
X010598Y016970D01*
X010762Y016970D01*
X010912Y017032D01*
X011028Y017148D01*
X011090Y017298D01*
X011090Y018062D01*
X011028Y018212D01*
X010912Y018328D01*
X010762Y018390D01*
X010598Y018390D01*
X010448Y018328D01*
X010330Y018206D02*
X010030Y018206D01*
X010071Y018107D02*
X010289Y018107D01*
X010270Y018009D02*
X010090Y018009D01*
X010090Y017910D02*
X010270Y017910D01*
X010270Y017812D02*
X010090Y017812D01*
X010090Y017713D02*
X010270Y017713D01*
X010270Y017615D02*
X010090Y017615D01*
X010090Y017516D02*
X010270Y017516D01*
X010270Y017418D02*
X010090Y017418D01*
X010090Y017319D02*
X010270Y017319D01*
X010302Y017221D02*
X010058Y017221D01*
X010002Y017122D02*
X010358Y017122D01*
X010469Y017024D02*
X009891Y017024D01*
X010891Y017024D02*
X011469Y017024D01*
X011448Y017032D02*
X011598Y016970D01*
X011762Y016970D01*
X011912Y017032D01*
X012028Y017148D01*
X012090Y017298D01*
X012090Y018062D01*
X012028Y018212D01*
X011912Y018328D01*
X011762Y018390D01*
X011598Y018390D01*
X011448Y018328D01*
X011332Y018212D01*
X011270Y018062D01*
X011270Y017298D01*
X011332Y017148D01*
X011448Y017032D01*
X011358Y017122D02*
X011002Y017122D01*
X011058Y017221D02*
X011302Y017221D01*
X011270Y017319D02*
X011090Y017319D01*
X011090Y017418D02*
X011270Y017418D01*
X011270Y017516D02*
X011090Y017516D01*
X011090Y017615D02*
X011270Y017615D01*
X011270Y017713D02*
X011090Y017713D01*
X011090Y017812D02*
X011270Y017812D01*
X011270Y017910D02*
X011090Y017910D01*
X011090Y018009D02*
X011270Y018009D01*
X011289Y018107D02*
X011071Y018107D01*
X011030Y018206D02*
X011330Y018206D01*
X011424Y018304D02*
X010936Y018304D01*
X011936Y018304D02*
X012424Y018304D01*
X012448Y018328D02*
X012332Y018212D01*
X012270Y018062D01*
X012270Y017298D01*
X012332Y017148D01*
X012448Y017032D01*
X012598Y016970D01*
X012762Y016970D01*
X012912Y017032D01*
X013028Y017148D01*
X013090Y017298D01*
X013090Y018062D01*
X013028Y018212D01*
X012912Y018328D01*
X012762Y018390D01*
X012598Y018390D01*
X012448Y018328D01*
X012330Y018206D02*
X012030Y018206D01*
X012071Y018107D02*
X012289Y018107D01*
X012270Y018009D02*
X012090Y018009D01*
X012090Y017910D02*
X012270Y017910D01*
X012270Y017812D02*
X012090Y017812D01*
X012090Y017713D02*
X012270Y017713D01*
X012270Y017615D02*
X012090Y017615D01*
X012090Y017516D02*
X012270Y017516D01*
X012270Y017418D02*
X012090Y017418D01*
X012090Y017319D02*
X012270Y017319D01*
X012302Y017221D02*
X012058Y017221D01*
X012002Y017122D02*
X012358Y017122D01*
X012469Y017024D02*
X011891Y017024D01*
X012891Y017024D02*
X013469Y017024D01*
X013448Y017032D02*
X013598Y016970D01*
X013762Y016970D01*
X013912Y017032D01*
X014028Y017148D01*
X014090Y017298D01*
X014090Y018062D01*
X014028Y018212D01*
X013912Y018328D01*
X013762Y018390D01*
X013598Y018390D01*
X013448Y018328D01*
X013332Y018212D01*
X013270Y018062D01*
X013270Y017298D01*
X013332Y017148D01*
X013448Y017032D01*
X013358Y017122D02*
X013002Y017122D01*
X013058Y017221D02*
X013302Y017221D01*
X013270Y017319D02*
X013090Y017319D01*
X013090Y017418D02*
X013270Y017418D01*
X013270Y017516D02*
X013090Y017516D01*
X013090Y017615D02*
X013270Y017615D01*
X013270Y017713D02*
X013090Y017713D01*
X013090Y017812D02*
X013270Y017812D01*
X013270Y017910D02*
X013090Y017910D01*
X013090Y018009D02*
X013270Y018009D01*
X013289Y018107D02*
X013071Y018107D01*
X013030Y018206D02*
X013330Y018206D01*
X013424Y018304D02*
X012936Y018304D01*
X013936Y018304D02*
X014424Y018304D01*
X014448Y018328D02*
X014332Y018212D01*
X014270Y018062D01*
X014270Y017298D01*
X014332Y017148D01*
X014448Y017032D01*
X014598Y016970D01*
X014762Y016970D01*
X014912Y017032D01*
X015028Y017148D01*
X015090Y017298D01*
X015090Y018062D01*
X015028Y018212D01*
X014912Y018328D01*
X014762Y018390D01*
X014598Y018390D01*
X014448Y018328D01*
X014330Y018206D02*
X014030Y018206D01*
X014071Y018107D02*
X014289Y018107D01*
X014270Y018009D02*
X014090Y018009D01*
X014090Y017910D02*
X014270Y017910D01*
X014270Y017812D02*
X014090Y017812D01*
X014090Y017713D02*
X014270Y017713D01*
X014270Y017615D02*
X014090Y017615D01*
X014090Y017516D02*
X014270Y017516D01*
X014270Y017418D02*
X014090Y017418D01*
X014090Y017319D02*
X014270Y017319D01*
X014302Y017221D02*
X014058Y017221D01*
X014002Y017122D02*
X014358Y017122D01*
X014469Y017024D02*
X013891Y017024D01*
X014891Y017024D02*
X015469Y017024D01*
X015358Y017122D02*
X015002Y017122D01*
X015058Y017221D02*
X015302Y017221D01*
X015270Y017319D02*
X015090Y017319D01*
X015090Y017418D02*
X015270Y017418D01*
X015270Y017516D02*
X015090Y017516D01*
X015090Y017615D02*
X015270Y017615D01*
X015270Y017713D02*
X015090Y017713D01*
X015090Y017812D02*
X015270Y017812D01*
X015270Y017910D02*
X015090Y017910D01*
X015090Y018009D02*
X015270Y018009D01*
X015289Y018107D02*
X015071Y018107D01*
X015030Y018206D02*
X015330Y018206D01*
X015424Y018304D02*
X014936Y018304D01*
X015509Y018403D02*
X000330Y018403D01*
X000330Y018501D02*
X015607Y018501D01*
X015706Y018600D02*
X000330Y018600D01*
X000330Y018698D02*
X015804Y018698D01*
X015948Y018304D02*
X017424Y018304D01*
X017330Y018206D02*
X016030Y018206D01*
X016071Y018107D02*
X017289Y018107D01*
X017270Y018009D02*
X016090Y018009D01*
X016090Y017910D02*
X017270Y017910D01*
X017270Y017812D02*
X016090Y017812D01*
X016090Y017713D02*
X017270Y017713D01*
X017270Y017615D02*
X016090Y017615D01*
X016090Y017516D02*
X017270Y017516D01*
X017270Y017418D02*
X016090Y017418D01*
X016090Y017319D02*
X017270Y017319D01*
X017302Y017221D02*
X016058Y017221D01*
X016002Y017122D02*
X017358Y017122D01*
X017450Y017024D02*
X015891Y017024D01*
X017424Y015349D02*
X017990Y015349D01*
X017990Y015251D02*
X017326Y015251D01*
X017227Y015152D02*
X017990Y015152D01*
X017990Y015054D02*
X017129Y015054D01*
X017030Y014955D02*
X017990Y014955D01*
X017990Y014857D02*
X016932Y014857D01*
X016833Y014758D02*
X017990Y014758D01*
X017990Y014660D02*
X016735Y014660D01*
X016636Y014561D02*
X017990Y014561D01*
X017990Y014463D02*
X016538Y014463D01*
X016439Y014364D02*
X017990Y014364D01*
X017990Y014266D02*
X016341Y014266D01*
X016242Y014167D02*
X017990Y014167D01*
X017990Y014069D02*
X016144Y014069D01*
X016045Y013970D02*
X017990Y013970D01*
X017990Y013872D02*
X015947Y013872D01*
X015848Y013773D02*
X017990Y013773D01*
X017990Y013675D02*
X015750Y013675D01*
X015651Y013576D02*
X017990Y013576D01*
X017990Y013478D02*
X015553Y013478D01*
X015454Y013379D02*
X017990Y013379D01*
X017990Y013281D02*
X015356Y013281D01*
X015257Y013182D02*
X017990Y013182D01*
X017990Y013084D02*
X015159Y013084D01*
X015060Y012985D02*
X017990Y012985D01*
X017990Y012887D02*
X014962Y012887D01*
X014863Y012788D02*
X017990Y012788D01*
X017990Y012690D02*
X014785Y012690D01*
X014785Y012591D02*
X017990Y012591D01*
X017990Y012493D02*
X014785Y012493D01*
X014785Y012394D02*
X017990Y012394D01*
X017990Y012296D02*
X014785Y012296D01*
X014785Y012197D02*
X017990Y012197D01*
X017990Y012099D02*
X014785Y012099D01*
X014785Y012000D02*
X017990Y012000D01*
X017990Y011902D02*
X014785Y011902D01*
X014785Y011803D02*
X017990Y011803D01*
X017990Y011705D02*
X014785Y011705D01*
X014785Y011606D02*
X017990Y011606D01*
X017990Y011508D02*
X014785Y011508D01*
X014785Y011409D02*
X017990Y011409D01*
X017990Y011311D02*
X014785Y011311D01*
X014785Y011212D02*
X016701Y011212D01*
X016710Y011222D02*
X016659Y011171D01*
X016591Y011119D01*
X016588Y011099D01*
X016576Y011087D01*
X016576Y011015D01*
X014785Y011015D01*
X014785Y010917D02*
X016574Y010917D01*
X016576Y010915D02*
X016576Y010898D01*
X016627Y010847D01*
X017325Y009916D01*
X017325Y007150D01*
X015585Y005410D01*
X013335Y005410D01*
X013200Y005275D01*
X013200Y005085D01*
X013335Y004950D01*
X015775Y004950D01*
X015910Y005085D01*
X017785Y006960D01*
X017785Y007150D01*
X017785Y009085D01*
X017785Y009976D01*
X017796Y010054D01*
X017785Y010069D01*
X017785Y010088D01*
X017729Y010144D01*
X017034Y011070D01*
X017034Y011087D01*
X016983Y011138D01*
X016932Y011207D01*
X016912Y011210D01*
X016900Y011222D01*
X016828Y011222D01*
X016743Y011234D01*
X016727Y011222D01*
X016710Y011222D01*
X016590Y011114D02*
X014785Y011114D01*
X014785Y010818D02*
X016648Y010818D01*
X016576Y010915D02*
X016564Y010931D01*
X016576Y011015D01*
X016722Y010720D02*
X014785Y010720D01*
X014785Y010621D02*
X016796Y010621D01*
X016870Y010523D02*
X014785Y010523D01*
X014785Y010424D02*
X016944Y010424D01*
X017018Y010326D02*
X014785Y010326D01*
X014785Y010227D02*
X017092Y010227D01*
X017165Y010129D02*
X014785Y010129D01*
X014785Y010030D02*
X017239Y010030D01*
X017313Y009932D02*
X014785Y009932D01*
X014783Y009833D02*
X017325Y009833D01*
X017325Y009735D02*
X014685Y009735D01*
X014650Y007972D02*
X013397Y007972D01*
X013263Y007838D01*
X012460Y007035D01*
X011960Y007035D01*
X011585Y006660D01*
X010671Y006660D01*
X010722Y006710D01*
X010722Y006900D01*
X010652Y006969D01*
X010652Y007309D01*
X010559Y007402D01*
X009402Y008559D01*
X009402Y008766D01*
X009430Y008794D01*
X009523Y008701D01*
X009712Y008701D01*
X009847Y008835D01*
X009847Y009025D01*
X009712Y009159D01*
X009677Y009159D01*
X009309Y009527D01*
X008176Y009527D01*
X008083Y009434D01*
X007808Y009159D01*
X007710Y009159D01*
X007576Y009025D01*
X007576Y008835D01*
X007710Y008701D01*
X007751Y008701D01*
X007585Y008535D01*
X007450Y008400D01*
X007450Y005838D01*
X006647Y005035D01*
X006150Y005035D01*
X005785Y005400D01*
X005785Y005900D01*
X005728Y005958D01*
X006996Y005958D01*
X007090Y006051D01*
X007090Y006051D01*
X007177Y006138D01*
X007275Y006138D01*
X007409Y006273D01*
X007409Y006462D01*
X007275Y006597D01*
X007085Y006597D01*
X006951Y006462D01*
X006951Y006365D01*
X006864Y006277D01*
X005364Y006277D01*
X005270Y006184D01*
X005083Y005996D01*
X005083Y002121D01*
X004895Y001934D01*
X004895Y001801D01*
X004989Y001708D01*
X005919Y000777D01*
X005746Y000777D01*
X004597Y001927D01*
X004597Y002025D01*
X004462Y002159D01*
X004273Y002159D01*
X004138Y002025D01*
X004138Y001835D01*
X004273Y001701D01*
X004370Y001701D01*
X005481Y000590D01*
X004496Y000590D01*
X004097Y000990D01*
X004097Y001150D01*
X003962Y001284D01*
X003773Y001284D01*
X003638Y001150D01*
X003638Y000960D01*
X003773Y000826D01*
X003808Y000826D01*
X004304Y000330D01*
X000330Y000330D01*
X000330Y019026D01*
X020400Y019026D01*
X020400Y000330D01*
X012619Y000330D01*
X012652Y000364D01*
X013134Y000845D01*
X013262Y000845D01*
X013412Y000907D01*
X013528Y001023D01*
X013590Y001173D01*
X013590Y001937D01*
X013528Y002087D01*
X013412Y002203D01*
X013262Y002265D01*
X013098Y002265D01*
X012948Y002203D01*
X012832Y002087D01*
X012770Y001937D01*
X012770Y001173D01*
X012832Y001023D01*
X012846Y001009D01*
X012426Y000590D01*
X011816Y000590D01*
X012079Y000853D01*
X012098Y000845D01*
X012262Y000845D01*
X012412Y000907D01*
X012528Y001023D01*
X012590Y001173D01*
X012590Y001937D01*
X012528Y002087D01*
X012412Y002203D01*
X012262Y002265D01*
X012098Y002265D01*
X011948Y002203D01*
X011832Y002087D01*
X011770Y001937D01*
X011770Y001173D01*
X011822Y001048D01*
X011551Y000777D01*
X011129Y000777D01*
X011196Y000845D01*
X011262Y000845D01*
X011412Y000907D01*
X011528Y001023D01*
X011590Y001173D01*
X011590Y001937D01*
X011528Y002087D01*
X011412Y002203D01*
X011262Y002265D01*
X011098Y002265D01*
X010948Y002203D01*
X010832Y002087D01*
X010770Y001937D01*
X010770Y001173D01*
X010832Y001023D01*
X010877Y000978D01*
X010864Y000965D01*
X010470Y000965D01*
X010528Y001023D01*
X010590Y001173D01*
X010590Y001937D01*
X010528Y002087D01*
X010412Y002203D01*
X010262Y002265D01*
X010098Y002265D01*
X009948Y002203D01*
X009832Y002087D01*
X009770Y001937D01*
X009770Y001173D01*
X009832Y001023D01*
X009890Y000965D01*
X009470Y000965D01*
X009528Y001023D01*
X009590Y001173D01*
X009590Y001937D01*
X009528Y002087D01*
X009412Y002203D01*
X009262Y002265D01*
X009098Y002265D01*
X008948Y002203D01*
X008832Y002087D01*
X008770Y001937D01*
X008770Y001173D01*
X008832Y001023D01*
X008890Y000965D01*
X008470Y000965D01*
X008528Y001023D01*
X008590Y001173D01*
X008590Y001937D01*
X008528Y002087D01*
X008412Y002203D01*
X008262Y002265D01*
X008098Y002265D01*
X007948Y002203D01*
X007832Y002087D01*
X007770Y001937D01*
X007770Y001173D01*
X007832Y001023D01*
X007890Y000965D01*
X007470Y000965D01*
X007528Y001023D01*
X007590Y001173D01*
X007590Y001937D01*
X007528Y002087D01*
X007412Y002203D01*
X007340Y002233D01*
X007340Y002380D01*
X007456Y002380D01*
X007480Y002404D01*
X007504Y002380D01*
X008056Y002380D01*
X008120Y002444D01*
X008120Y003166D01*
X008056Y003230D01*
X007940Y003230D01*
X007940Y003304D01*
X007972Y003335D01*
X007972Y003440D01*
X008023Y003388D01*
X008212Y003388D01*
X008281Y003458D01*
X008559Y003458D01*
X009809Y004708D01*
X009902Y004801D01*
X009902Y006570D01*
X010138Y006335D01*
X010272Y006200D01*
X011775Y006200D01*
X012150Y006575D01*
X012650Y006575D01*
X012785Y006710D01*
X013588Y007513D01*
X014650Y007513D01*
X014785Y007647D01*
X014785Y007838D01*
X014650Y007972D01*
X014661Y007962D02*
X017325Y007962D01*
X017325Y008060D02*
X009901Y008060D01*
X009803Y008159D02*
X017325Y008159D01*
X017325Y008257D02*
X009704Y008257D01*
X009606Y008356D02*
X017325Y008356D01*
X017325Y008454D02*
X009507Y008454D01*
X009409Y008553D02*
X017325Y008553D01*
X017325Y008651D02*
X009402Y008651D01*
X009402Y008750D02*
X009474Y008750D01*
X009618Y008930D02*
X009618Y008993D01*
X009243Y009368D01*
X008243Y009368D01*
X007805Y008930D01*
X007576Y008947D02*
X000330Y008947D01*
X000330Y009045D02*
X007596Y009045D01*
X007695Y009144D02*
X000330Y009144D01*
X000330Y009242D02*
X007891Y009242D01*
X007989Y009341D02*
X000330Y009341D01*
X000330Y009439D02*
X008088Y009439D01*
X007576Y008848D02*
X000330Y008848D01*
X000330Y008750D02*
X007662Y008750D01*
X007701Y008651D02*
X000330Y008651D01*
X000330Y008553D02*
X007602Y008553D01*
X007504Y008454D02*
X001146Y008454D01*
X001126Y008474D02*
X000999Y008526D01*
X000861Y008526D01*
X000734Y008474D01*
X000636Y008376D01*
X000584Y008249D01*
X000584Y008111D01*
X000636Y007984D01*
X000734Y007886D01*
X000861Y007834D01*
X000999Y007834D01*
X001126Y007886D01*
X001224Y007984D01*
X001276Y008111D01*
X001276Y008249D01*
X001224Y008376D01*
X001126Y008474D01*
X001232Y008356D02*
X007450Y008356D01*
X007450Y008257D02*
X001273Y008257D01*
X001276Y008159D02*
X007450Y008159D01*
X007450Y008060D02*
X001255Y008060D01*
X001201Y007962D02*
X007450Y007962D01*
X007450Y007863D02*
X001069Y007863D01*
X000791Y007863D02*
X000330Y007863D01*
X000330Y007765D02*
X007450Y007765D01*
X007450Y007666D02*
X000330Y007666D01*
X000330Y007568D02*
X007450Y007568D01*
X007450Y007469D02*
X001131Y007469D01*
X001126Y007474D02*
X000999Y007526D01*
X000861Y007526D01*
X000734Y007474D01*
X000636Y007376D01*
X000584Y007249D01*
X000584Y007111D01*
X000636Y006984D01*
X000734Y006886D01*
X000861Y006834D01*
X000999Y006834D01*
X001035Y006849D01*
X001645Y006239D01*
X001645Y004969D01*
X001590Y004914D01*
X001590Y005746D01*
X001261Y006075D01*
X001276Y006111D01*
X001276Y006249D01*
X001224Y006376D01*
X001126Y006474D01*
X000999Y006526D01*
X000861Y006526D01*
X000734Y006474D01*
X000636Y006376D01*
X000584Y006249D01*
X000584Y006111D01*
X000636Y005984D01*
X000734Y005886D01*
X000861Y005834D01*
X000999Y005834D01*
X001035Y005849D01*
X001270Y005614D01*
X001270Y005264D01*
X001224Y005376D01*
X001126Y005474D01*
X000999Y005526D01*
X000861Y005526D01*
X000734Y005474D01*
X000636Y005376D01*
X000584Y005249D01*
X000584Y005111D01*
X000636Y004984D01*
X000734Y004886D01*
X000861Y004834D01*
X000999Y004834D01*
X001126Y004886D01*
X001224Y004984D01*
X001270Y005096D01*
X001270Y004614D01*
X001364Y004520D01*
X001576Y004308D01*
X001576Y004210D01*
X001710Y004076D01*
X001900Y004076D01*
X002034Y004210D01*
X002034Y004400D01*
X001900Y004534D01*
X001802Y004534D01*
X001760Y004576D01*
X001900Y004576D01*
X002034Y004710D01*
X002034Y004900D01*
X001965Y004969D01*
X001965Y006371D01*
X001261Y007075D01*
X001276Y007111D01*
X001276Y007249D01*
X001224Y007376D01*
X001126Y007474D01*
X001226Y007371D02*
X007450Y007371D01*
X007450Y007272D02*
X001267Y007272D01*
X001276Y007174D02*
X007450Y007174D01*
X007450Y007075D02*
X001261Y007075D01*
X001360Y006977D02*
X007450Y006977D01*
X007450Y006878D02*
X001458Y006878D01*
X001557Y006780D02*
X007450Y006780D01*
X007450Y006681D02*
X001655Y006681D01*
X001754Y006583D02*
X007071Y006583D01*
X006973Y006484D02*
X001852Y006484D01*
X001951Y006386D02*
X006951Y006386D01*
X006873Y006287D02*
X001965Y006287D01*
X001965Y006189D02*
X005275Y006189D01*
X005176Y006090D02*
X001965Y006090D01*
X001965Y005992D02*
X005083Y005992D01*
X005083Y005893D02*
X001965Y005893D01*
X001965Y005795D02*
X005083Y005795D01*
X005083Y005696D02*
X001965Y005696D01*
X001965Y005598D02*
X005083Y005598D01*
X005083Y005499D02*
X001965Y005499D01*
X001965Y005401D02*
X005083Y005401D01*
X005083Y005302D02*
X001965Y005302D01*
X001965Y005204D02*
X005083Y005204D01*
X005083Y005105D02*
X001965Y005105D01*
X001965Y005007D02*
X005083Y005007D01*
X005083Y004908D02*
X002026Y004908D01*
X002034Y004810D02*
X005083Y004810D01*
X005083Y004711D02*
X002034Y004711D01*
X001936Y004613D02*
X005083Y004613D01*
X005083Y004514D02*
X001920Y004514D01*
X002018Y004416D02*
X005083Y004416D01*
X005083Y004317D02*
X002034Y004317D01*
X002034Y004219D02*
X005083Y004219D01*
X005083Y004120D02*
X001944Y004120D01*
X001805Y004305D02*
X001430Y004680D01*
X001430Y005680D01*
X000930Y006180D01*
X000646Y006386D02*
X000330Y006386D01*
X000330Y006484D02*
X000759Y006484D01*
X000600Y006287D02*
X000330Y006287D01*
X000330Y006189D02*
X000584Y006189D01*
X000593Y006090D02*
X000330Y006090D01*
X000330Y005992D02*
X000633Y005992D01*
X000727Y005893D02*
X000330Y005893D01*
X000330Y005795D02*
X001089Y005795D01*
X001188Y005696D02*
X000330Y005696D01*
X000330Y005598D02*
X001270Y005598D01*
X001270Y005499D02*
X001065Y005499D01*
X001199Y005401D02*
X001270Y005401D01*
X001270Y005302D02*
X001254Y005302D01*
X001233Y005007D02*
X001270Y005007D01*
X001270Y004908D02*
X001148Y004908D01*
X001270Y004810D02*
X000330Y004810D01*
X000330Y004908D02*
X000712Y004908D01*
X000627Y005007D02*
X000330Y005007D01*
X000330Y005105D02*
X000586Y005105D01*
X000584Y005204D02*
X000330Y005204D01*
X000330Y005302D02*
X000606Y005302D01*
X000661Y005401D02*
X000330Y005401D01*
X000330Y005499D02*
X000795Y005499D01*
X001345Y005992D02*
X001645Y005992D01*
X001645Y006090D02*
X001267Y006090D01*
X001276Y006189D02*
X001645Y006189D01*
X001597Y006287D02*
X001260Y006287D01*
X001214Y006386D02*
X001498Y006386D01*
X001400Y006484D02*
X001101Y006484D01*
X001203Y006681D02*
X000330Y006681D01*
X000330Y006583D02*
X001301Y006583D01*
X001104Y006780D02*
X000330Y006780D01*
X000330Y006878D02*
X000754Y006878D01*
X000644Y006977D02*
X000330Y006977D01*
X000330Y007075D02*
X000599Y007075D01*
X000584Y007174D02*
X000330Y007174D01*
X000330Y007272D02*
X000593Y007272D01*
X000634Y007371D02*
X000330Y007371D01*
X000330Y007469D02*
X000729Y007469D01*
X000930Y007180D02*
X001805Y006305D01*
X001805Y004805D01*
X001645Y005007D02*
X001590Y005007D01*
X001590Y005105D02*
X001645Y005105D01*
X001645Y005204D02*
X001590Y005204D01*
X001590Y005302D02*
X001645Y005302D01*
X001645Y005401D02*
X001590Y005401D01*
X001590Y005499D02*
X001645Y005499D01*
X001645Y005598D02*
X001590Y005598D01*
X001590Y005696D02*
X001645Y005696D01*
X001645Y005795D02*
X001542Y005795D01*
X001443Y005893D02*
X001645Y005893D01*
X001270Y004711D02*
X000330Y004711D01*
X000330Y004613D02*
X001271Y004613D01*
X001370Y004514D02*
X001028Y004514D01*
X000999Y004526D02*
X000861Y004526D01*
X000734Y004474D01*
X000636Y004376D01*
X000584Y004249D01*
X000584Y004111D01*
X000636Y003984D01*
X000734Y003886D01*
X000861Y003834D01*
X000999Y003834D01*
X001035Y003849D01*
X001576Y003308D01*
X001576Y003210D01*
X001710Y003076D01*
X001900Y003076D01*
X002034Y003210D01*
X002034Y003400D01*
X001900Y003534D01*
X001802Y003534D01*
X001261Y004075D01*
X001276Y004111D01*
X001276Y004249D01*
X001224Y004376D01*
X001126Y004474D01*
X000999Y004526D01*
X000832Y004514D02*
X000330Y004514D01*
X000330Y004416D02*
X000676Y004416D01*
X000612Y004317D02*
X000330Y004317D01*
X000330Y004219D02*
X000584Y004219D01*
X000584Y004120D02*
X000330Y004120D01*
X000330Y004022D02*
X000621Y004022D01*
X000697Y003923D02*
X000330Y003923D01*
X000330Y003825D02*
X001059Y003825D01*
X001158Y003726D02*
X000330Y003726D01*
X000330Y003628D02*
X001256Y003628D01*
X001355Y003529D02*
X000330Y003529D01*
X000330Y003431D02*
X000691Y003431D01*
X000734Y003474D02*
X000636Y003376D01*
X000584Y003249D01*
X000584Y003111D01*
X000636Y002984D01*
X000734Y002886D01*
X000861Y002834D01*
X000999Y002834D01*
X001126Y002886D01*
X001224Y002984D01*
X001276Y003111D01*
X001276Y003249D01*
X001224Y003376D01*
X001126Y003474D01*
X000999Y003526D01*
X000861Y003526D01*
X000734Y003474D01*
X000618Y003332D02*
X000330Y003332D01*
X000330Y003234D02*
X000584Y003234D01*
X000584Y003135D02*
X000330Y003135D01*
X000330Y003037D02*
X000615Y003037D01*
X000682Y002938D02*
X000330Y002938D01*
X000330Y002840D02*
X000847Y002840D01*
X001013Y002840D02*
X005083Y002840D01*
X005083Y002938D02*
X001178Y002938D01*
X001245Y003037D02*
X005083Y003037D01*
X005083Y003135D02*
X001959Y003135D01*
X002034Y003234D02*
X005083Y003234D01*
X005083Y003332D02*
X002034Y003332D01*
X002003Y003431D02*
X005083Y003431D01*
X005083Y003529D02*
X001905Y003529D01*
X001709Y003628D02*
X005083Y003628D01*
X005083Y003726D02*
X001610Y003726D01*
X001512Y003825D02*
X005083Y003825D01*
X005083Y003923D02*
X001413Y003923D01*
X001315Y004022D02*
X005083Y004022D01*
X005555Y003805D02*
X005555Y001743D01*
X005236Y001461D02*
X005063Y001461D01*
X005137Y001559D02*
X004965Y001559D01*
X005039Y001658D02*
X004866Y001658D01*
X004940Y001756D02*
X004768Y001756D01*
X004669Y001855D02*
X004895Y001855D01*
X004914Y001953D02*
X004597Y001953D01*
X004570Y002052D02*
X005013Y002052D01*
X005083Y002150D02*
X004471Y002150D01*
X004264Y002150D02*
X001276Y002150D01*
X001276Y002111D02*
X001224Y001984D01*
X001126Y001886D01*
X000999Y001834D01*
X000861Y001834D01*
X000734Y001886D01*
X000636Y001984D01*
X000584Y002111D01*
X000584Y002249D01*
X000636Y002376D01*
X000734Y002474D01*
X000861Y002526D01*
X000999Y002526D01*
X001126Y002474D01*
X001224Y002376D01*
X001276Y002249D01*
X001276Y002111D01*
X001252Y002052D02*
X004165Y002052D01*
X004138Y001953D02*
X001193Y001953D01*
X001049Y001855D02*
X004138Y001855D01*
X004218Y001756D02*
X000330Y001756D01*
X000330Y001658D02*
X004414Y001658D01*
X004512Y001559D02*
X000330Y001559D01*
X000330Y001461D02*
X000721Y001461D01*
X000734Y001474D02*
X000636Y001376D01*
X000584Y001249D01*
X000584Y001111D01*
X000636Y000984D01*
X000734Y000886D01*
X000861Y000834D01*
X000999Y000834D01*
X001126Y000886D01*
X001224Y000984D01*
X001276Y001111D01*
X001276Y001249D01*
X001224Y001376D01*
X001126Y001474D01*
X000999Y001526D01*
X000861Y001526D01*
X000734Y001474D01*
X000631Y001362D02*
X000330Y001362D01*
X000330Y001264D02*
X000590Y001264D01*
X000584Y001165D02*
X000330Y001165D01*
X000330Y001067D02*
X000602Y001067D01*
X000652Y000968D02*
X000330Y000968D01*
X000330Y000870D02*
X000775Y000870D01*
X001085Y000870D02*
X003729Y000870D01*
X003638Y000968D02*
X001208Y000968D01*
X001258Y001067D02*
X003638Y001067D01*
X003654Y001165D02*
X001276Y001165D01*
X001270Y001264D02*
X003752Y001264D01*
X003868Y001055D02*
X003868Y000993D01*
X004430Y000430D01*
X012493Y000430D01*
X013180Y001118D01*
X013180Y001555D01*
X013590Y001559D02*
X014770Y001559D01*
X014770Y001461D02*
X013590Y001461D01*
X013590Y001362D02*
X014770Y001362D01*
X014770Y001264D02*
X013590Y001264D01*
X013587Y001165D02*
X014773Y001165D01*
X014814Y001067D02*
X013546Y001067D01*
X013473Y000968D02*
X014887Y000968D01*
X015039Y000870D02*
X013321Y000870D01*
X013060Y000771D02*
X020400Y000771D01*
X020400Y000673D02*
X012961Y000673D01*
X012863Y000574D02*
X020400Y000574D01*
X020400Y000476D02*
X012764Y000476D01*
X012666Y000377D02*
X020400Y000377D01*
X020400Y000870D02*
X015321Y000870D01*
X015473Y000968D02*
X020400Y000968D01*
X020400Y001067D02*
X015546Y001067D01*
X015587Y001165D02*
X020400Y001165D01*
X020400Y001264D02*
X015590Y001264D01*
X015590Y001362D02*
X020400Y001362D01*
X020400Y001461D02*
X015590Y001461D01*
X015590Y001559D02*
X020400Y001559D01*
X020400Y001658D02*
X015590Y001658D01*
X015590Y001756D02*
X020400Y001756D01*
X020400Y001855D02*
X015590Y001855D01*
X015583Y001953D02*
X020400Y001953D01*
X020400Y002052D02*
X015542Y002052D01*
X015465Y002150D02*
X020400Y002150D01*
X020400Y002249D02*
X015370Y002249D01*
X015370Y002347D02*
X020400Y002347D01*
X020400Y002446D02*
X015370Y002446D01*
X015370Y002544D02*
X020400Y002544D01*
X020400Y002643D02*
X015370Y002643D01*
X015370Y002741D02*
X020400Y002741D01*
X020400Y002840D02*
X015370Y002840D01*
X015370Y002938D02*
X020400Y002938D01*
X020400Y003037D02*
X015370Y003037D01*
X015370Y003135D02*
X020400Y003135D01*
X020400Y003234D02*
X015370Y003234D01*
X015370Y003332D02*
X020400Y003332D01*
X020400Y003431D02*
X015370Y003431D01*
X015370Y003529D02*
X020400Y003529D01*
X020400Y003628D02*
X015370Y003628D01*
X015370Y003726D02*
X020400Y003726D01*
X020400Y003825D02*
X015370Y003825D01*
X015370Y003923D02*
X020400Y003923D01*
X020400Y004022D02*
X015415Y004022D01*
X015514Y004120D02*
X020400Y004120D01*
X020400Y004219D02*
X015612Y004219D01*
X015711Y004317D02*
X020400Y004317D01*
X020400Y004416D02*
X015809Y004416D01*
X015908Y004514D02*
X020400Y004514D01*
X020400Y004613D02*
X020068Y004613D01*
X020126Y004636D02*
X020224Y004734D01*
X020276Y004861D01*
X020276Y004999D01*
X020224Y005126D01*
X020126Y005224D01*
X019999Y005276D01*
X019861Y005276D01*
X019734Y005224D01*
X019636Y005126D01*
X019584Y004999D01*
X019584Y004861D01*
X019636Y004734D01*
X019734Y004636D01*
X019861Y004584D01*
X019999Y004584D01*
X020126Y004636D01*
X020201Y004711D02*
X020400Y004711D01*
X020400Y004810D02*
X020255Y004810D01*
X020276Y004908D02*
X020400Y004908D01*
X020400Y005007D02*
X020273Y005007D01*
X020232Y005105D02*
X020400Y005105D01*
X020400Y005204D02*
X020146Y005204D01*
X020400Y005302D02*
X016696Y005302D01*
X016794Y005401D02*
X020400Y005401D01*
X020400Y005499D02*
X016893Y005499D01*
X016991Y005598D02*
X019828Y005598D01*
X019861Y005584D02*
X019999Y005584D01*
X020126Y005636D01*
X020224Y005734D01*
X020276Y005861D01*
X020276Y005999D01*
X020224Y006126D01*
X020126Y006224D01*
X019999Y006276D01*
X019861Y006276D01*
X019734Y006224D01*
X019636Y006126D01*
X019584Y005999D01*
X019584Y005861D01*
X019636Y005734D01*
X019734Y005636D01*
X019861Y005584D01*
X020032Y005598D02*
X020400Y005598D01*
X020400Y005696D02*
X020186Y005696D01*
X020249Y005795D02*
X020400Y005795D01*
X020400Y005893D02*
X020276Y005893D01*
X020276Y005992D02*
X020400Y005992D01*
X020400Y006090D02*
X020238Y006090D01*
X020161Y006189D02*
X020400Y006189D01*
X020400Y006287D02*
X017681Y006287D01*
X017779Y006386D02*
X020400Y006386D01*
X020400Y006484D02*
X017878Y006484D01*
X017976Y006583D02*
X020400Y006583D01*
X020400Y006681D02*
X020171Y006681D01*
X020126Y006636D02*
X020224Y006734D01*
X020276Y006861D01*
X020276Y006999D01*
X020224Y007126D01*
X020126Y007224D01*
X019999Y007276D01*
X019861Y007276D01*
X019734Y007224D01*
X019636Y007126D01*
X019584Y006999D01*
X019584Y006861D01*
X019636Y006734D01*
X019734Y006636D01*
X019861Y006584D01*
X019999Y006584D01*
X020126Y006636D01*
X020242Y006780D02*
X020400Y006780D01*
X020400Y006878D02*
X020276Y006878D01*
X020276Y006977D02*
X020400Y006977D01*
X020400Y007075D02*
X020245Y007075D01*
X020176Y007174D02*
X020400Y007174D01*
X020400Y007272D02*
X020009Y007272D01*
X019851Y007272D02*
X018370Y007272D01*
X018370Y007174D02*
X019684Y007174D01*
X019615Y007075D02*
X018370Y007075D01*
X018370Y006977D02*
X019584Y006977D01*
X019584Y006878D02*
X018272Y006878D01*
X018173Y006780D02*
X019618Y006780D01*
X019689Y006681D02*
X018075Y006681D01*
X017833Y006977D02*
X017785Y006977D01*
X017785Y007075D02*
X017931Y007075D01*
X017990Y007174D02*
X017785Y007174D01*
X017785Y007272D02*
X017990Y007272D01*
X017990Y007371D02*
X017785Y007371D01*
X017785Y007469D02*
X017990Y007469D01*
X017990Y007568D02*
X017785Y007568D01*
X017785Y007666D02*
X017990Y007666D01*
X017990Y007765D02*
X017785Y007765D01*
X017785Y007863D02*
X017990Y007863D01*
X017990Y007962D02*
X017785Y007962D01*
X017785Y008060D02*
X017990Y008060D01*
X017990Y008159D02*
X017785Y008159D01*
X017785Y008257D02*
X017990Y008257D01*
X017990Y008356D02*
X017785Y008356D01*
X017785Y008454D02*
X017990Y008454D01*
X017990Y008553D02*
X017785Y008553D01*
X017785Y008651D02*
X017990Y008651D01*
X017990Y008750D02*
X017785Y008750D01*
X017785Y008848D02*
X017990Y008848D01*
X017990Y008947D02*
X017785Y008947D01*
X017785Y009045D02*
X017990Y009045D01*
X017990Y009144D02*
X017785Y009144D01*
X017785Y009242D02*
X017990Y009242D01*
X017990Y009341D02*
X017785Y009341D01*
X017785Y009439D02*
X017990Y009439D01*
X017990Y009538D02*
X017785Y009538D01*
X017785Y009636D02*
X017990Y009636D01*
X017990Y009735D02*
X017785Y009735D01*
X017785Y009833D02*
X017990Y009833D01*
X017990Y009932D02*
X017785Y009932D01*
X017793Y010030D02*
X017990Y010030D01*
X017990Y010129D02*
X017744Y010129D01*
X017667Y010227D02*
X017990Y010227D01*
X017990Y010326D02*
X017593Y010326D01*
X017519Y010424D02*
X017990Y010424D01*
X017990Y010523D02*
X017445Y010523D01*
X017371Y010621D02*
X017990Y010621D01*
X017990Y010720D02*
X017297Y010720D01*
X017223Y010818D02*
X017990Y010818D01*
X017990Y010917D02*
X017149Y010917D01*
X017076Y011015D02*
X017990Y011015D01*
X017990Y011114D02*
X017008Y011114D01*
X016909Y011212D02*
X017990Y011212D01*
X018370Y011212D02*
X020400Y011212D01*
X020400Y011114D02*
X018370Y011114D01*
X018370Y011015D02*
X020400Y011015D01*
X020400Y010917D02*
X018370Y010917D01*
X018370Y010818D02*
X020400Y010818D01*
X020400Y010720D02*
X018370Y010720D01*
X018370Y010621D02*
X020400Y010621D01*
X020400Y010523D02*
X018370Y010523D01*
X018370Y010424D02*
X020400Y010424D01*
X020400Y010326D02*
X018370Y010326D01*
X018370Y010227D02*
X019742Y010227D01*
X019734Y010224D02*
X019636Y010126D01*
X019584Y009999D01*
X019584Y009861D01*
X019636Y009734D01*
X019734Y009636D01*
X019861Y009584D01*
X019999Y009584D01*
X020126Y009636D01*
X020224Y009734D01*
X020276Y009861D01*
X020276Y009999D01*
X020224Y010126D01*
X020126Y010224D01*
X019999Y010276D01*
X019861Y010276D01*
X019734Y010224D01*
X019639Y010129D02*
X018370Y010129D01*
X018370Y010030D02*
X019597Y010030D01*
X019584Y009932D02*
X018370Y009932D01*
X018370Y009833D02*
X019595Y009833D01*
X019636Y009735D02*
X018370Y009735D01*
X018370Y009636D02*
X019735Y009636D01*
X019861Y009276D02*
X019734Y009224D01*
X019636Y009126D01*
X019584Y008999D01*
X019584Y008861D01*
X019636Y008734D01*
X019734Y008636D01*
X019861Y008584D01*
X019999Y008584D01*
X020126Y008636D01*
X020224Y008734D01*
X020276Y008861D01*
X020276Y008999D01*
X020224Y009126D01*
X020126Y009224D01*
X019999Y009276D01*
X019861Y009276D01*
X019779Y009242D02*
X018370Y009242D01*
X018370Y009144D02*
X019654Y009144D01*
X019603Y009045D02*
X018370Y009045D01*
X018370Y008947D02*
X019584Y008947D01*
X019589Y008848D02*
X018370Y008848D01*
X018370Y008750D02*
X019630Y008750D01*
X019719Y008651D02*
X018370Y008651D01*
X018370Y008553D02*
X020400Y008553D01*
X020400Y008651D02*
X020141Y008651D01*
X020230Y008750D02*
X020400Y008750D01*
X020400Y008848D02*
X020271Y008848D01*
X020276Y008947D02*
X020400Y008947D01*
X020400Y009045D02*
X020257Y009045D01*
X020206Y009144D02*
X020400Y009144D01*
X020400Y009242D02*
X020081Y009242D01*
X020400Y009341D02*
X018370Y009341D01*
X018370Y009439D02*
X020400Y009439D01*
X020400Y009538D02*
X018370Y009538D01*
X017325Y009439D02*
X009397Y009439D01*
X009496Y009341D02*
X017325Y009341D01*
X017325Y009242D02*
X009594Y009242D01*
X009728Y009144D02*
X017325Y009144D01*
X017325Y009045D02*
X009826Y009045D01*
X009847Y008947D02*
X017325Y008947D01*
X017325Y008848D02*
X009847Y008848D01*
X009761Y008750D02*
X017325Y008750D01*
X017325Y007863D02*
X014760Y007863D01*
X014785Y007765D02*
X017325Y007765D01*
X017325Y007666D02*
X014785Y007666D01*
X014705Y007568D02*
X017325Y007568D01*
X017325Y007469D02*
X013544Y007469D01*
X013446Y007371D02*
X017325Y007371D01*
X017325Y007272D02*
X013347Y007272D01*
X013249Y007174D02*
X017325Y007174D01*
X017250Y007075D02*
X013150Y007075D01*
X013052Y006977D02*
X017151Y006977D01*
X017053Y006878D02*
X012953Y006878D01*
X012855Y006780D02*
X016954Y006780D01*
X016856Y006681D02*
X012756Y006681D01*
X012658Y006583D02*
X016757Y006583D01*
X016659Y006484D02*
X012059Y006484D01*
X011961Y006386D02*
X016560Y006386D01*
X016462Y006287D02*
X011862Y006287D01*
X011606Y006681D02*
X010692Y006681D01*
X010722Y006780D02*
X011704Y006780D01*
X011803Y006878D02*
X010722Y006878D01*
X010652Y006977D02*
X011901Y006977D01*
X012500Y007075D02*
X010652Y007075D01*
X010652Y007174D02*
X012598Y007174D01*
X012697Y007272D02*
X010652Y007272D01*
X010591Y007371D02*
X012795Y007371D01*
X012894Y007469D02*
X010492Y007469D01*
X010394Y007568D02*
X012992Y007568D01*
X013091Y007666D02*
X010295Y007666D01*
X010197Y007765D02*
X013189Y007765D01*
X013263Y007838D02*
X013263Y007838D01*
X013288Y007863D02*
X010098Y007863D01*
X010000Y007962D02*
X013386Y007962D01*
X013325Y005401D02*
X009902Y005401D01*
X009902Y005499D02*
X015674Y005499D01*
X015772Y005598D02*
X009902Y005598D01*
X009902Y005696D02*
X015871Y005696D01*
X015969Y005795D02*
X009902Y005795D01*
X009902Y005893D02*
X016068Y005893D01*
X016166Y005992D02*
X009902Y005992D01*
X009902Y006090D02*
X016265Y006090D01*
X016363Y006189D02*
X009902Y006189D01*
X009902Y006287D02*
X010185Y006287D01*
X010087Y006386D02*
X009902Y006386D01*
X009902Y006484D02*
X009988Y006484D01*
X009743Y007055D02*
X009743Y004868D01*
X008493Y003618D01*
X008118Y003618D01*
X008254Y003431D02*
X014990Y003431D01*
X014990Y003529D02*
X008630Y003529D01*
X008729Y003628D02*
X014990Y003628D01*
X014990Y003726D02*
X008827Y003726D01*
X008926Y003825D02*
X014990Y003825D01*
X014990Y003923D02*
X009024Y003923D01*
X009123Y004022D02*
X014990Y004022D01*
X014990Y004120D02*
X009221Y004120D01*
X009320Y004219D02*
X015075Y004219D01*
X015173Y004317D02*
X009418Y004317D01*
X009517Y004416D02*
X015272Y004416D01*
X015370Y004514D02*
X009615Y004514D01*
X009714Y004613D02*
X015469Y004613D01*
X015567Y004711D02*
X009812Y004711D01*
X009902Y004810D02*
X015666Y004810D01*
X015764Y004908D02*
X009902Y004908D01*
X009902Y005007D02*
X013278Y005007D01*
X013200Y005105D02*
X009902Y005105D01*
X009902Y005204D02*
X013200Y005204D01*
X013227Y005302D02*
X009902Y005302D01*
X009243Y004868D02*
X009180Y004805D01*
X009243Y004868D02*
X009243Y007493D01*
X008555Y008180D01*
X008555Y008680D01*
X009243Y008493D02*
X009243Y008930D01*
X009243Y008493D02*
X010493Y007243D01*
X010493Y006805D01*
X008922Y007375D02*
X008922Y005672D01*
X007743Y004493D01*
X007743Y003430D01*
X007780Y003393D01*
X007780Y002805D01*
X008120Y002840D02*
X014990Y002840D01*
X014990Y002938D02*
X008120Y002938D01*
X008120Y003037D02*
X014990Y003037D01*
X014990Y003135D02*
X008120Y003135D01*
X007940Y003234D02*
X014990Y003234D01*
X014990Y003332D02*
X007968Y003332D01*
X007972Y003431D02*
X007981Y003431D01*
X008120Y002741D02*
X014990Y002741D01*
X014990Y002643D02*
X008120Y002643D01*
X008120Y002544D02*
X014990Y002544D01*
X014990Y002446D02*
X008120Y002446D01*
X008059Y002249D02*
X007340Y002249D01*
X007340Y002347D02*
X014990Y002347D01*
X014990Y002249D02*
X013301Y002249D01*
X013465Y002150D02*
X014895Y002150D01*
X014818Y002052D02*
X013542Y002052D01*
X013583Y001953D02*
X014777Y001953D01*
X014770Y001855D02*
X013590Y001855D01*
X013590Y001756D02*
X014770Y001756D01*
X014770Y001658D02*
X013590Y001658D01*
X013059Y002249D02*
X012301Y002249D01*
X012465Y002150D02*
X012895Y002150D01*
X012818Y002052D02*
X012542Y002052D01*
X012583Y001953D02*
X012777Y001953D01*
X012770Y001855D02*
X012590Y001855D01*
X012590Y001756D02*
X012770Y001756D01*
X012770Y001658D02*
X012590Y001658D01*
X012590Y001559D02*
X012770Y001559D01*
X012770Y001461D02*
X012590Y001461D01*
X012590Y001362D02*
X012770Y001362D01*
X012770Y001264D02*
X012590Y001264D01*
X012587Y001165D02*
X012773Y001165D01*
X012814Y001067D02*
X012546Y001067D01*
X012473Y000968D02*
X012804Y000968D01*
X012706Y000870D02*
X012321Y000870D01*
X012509Y000673D02*
X011899Y000673D01*
X011997Y000771D02*
X012607Y000771D01*
X012180Y001180D02*
X011618Y000618D01*
X005680Y000618D01*
X004368Y001930D01*
X004611Y001461D02*
X001139Y001461D01*
X001229Y001362D02*
X004709Y001362D01*
X004808Y001264D02*
X003983Y001264D01*
X004081Y001165D02*
X004906Y001165D01*
X005005Y001067D02*
X004097Y001067D01*
X004118Y000968D02*
X005103Y000968D01*
X005202Y000870D02*
X004217Y000870D01*
X004315Y000771D02*
X005300Y000771D01*
X005399Y000673D02*
X004414Y000673D01*
X004158Y000476D02*
X000330Y000476D01*
X000330Y000574D02*
X004060Y000574D01*
X003961Y000673D02*
X000330Y000673D01*
X000330Y000771D02*
X003863Y000771D01*
X004257Y000377D02*
X000330Y000377D01*
X000330Y001855D02*
X000811Y001855D01*
X000667Y001953D02*
X000330Y001953D01*
X000330Y002052D02*
X000608Y002052D01*
X000584Y002150D02*
X000330Y002150D01*
X000330Y002249D02*
X000584Y002249D01*
X000624Y002347D02*
X000330Y002347D01*
X000330Y002446D02*
X000706Y002446D01*
X000330Y002544D02*
X005083Y002544D01*
X005083Y002446D02*
X001154Y002446D01*
X001236Y002347D02*
X005083Y002347D01*
X005083Y002249D02*
X001276Y002249D01*
X001276Y003135D02*
X001651Y003135D01*
X001576Y003234D02*
X001276Y003234D01*
X001242Y003332D02*
X001552Y003332D01*
X001453Y003431D02*
X001169Y003431D01*
X001805Y003305D02*
X000930Y004180D01*
X001248Y004317D02*
X001567Y004317D01*
X001576Y004219D02*
X001276Y004219D01*
X001276Y004120D02*
X001666Y004120D01*
X001468Y004416D02*
X001184Y004416D01*
X000330Y002741D02*
X005083Y002741D01*
X005083Y002643D02*
X000330Y002643D01*
X005055Y001868D02*
X005243Y002055D01*
X005243Y005930D01*
X005430Y006118D01*
X006930Y006118D01*
X007180Y006368D01*
X007409Y006386D02*
X007450Y006386D01*
X007450Y006484D02*
X007387Y006484D01*
X007450Y006583D02*
X007289Y006583D01*
X007409Y006287D02*
X007450Y006287D01*
X007450Y006189D02*
X007325Y006189D01*
X007450Y006090D02*
X007129Y006090D01*
X007030Y005992D02*
X007450Y005992D01*
X007450Y005893D02*
X005785Y005893D01*
X005785Y005795D02*
X007407Y005795D01*
X007308Y005696D02*
X005785Y005696D01*
X005785Y005598D02*
X007210Y005598D01*
X007111Y005499D02*
X005785Y005499D01*
X005785Y005401D02*
X007013Y005401D01*
X006914Y005302D02*
X005883Y005302D01*
X005982Y005204D02*
X006816Y005204D01*
X006717Y005105D02*
X006080Y005105D01*
X005555Y004305D02*
X006618Y004305D01*
X007993Y005680D01*
X007993Y007618D01*
X008055Y007680D01*
X008305Y007368D02*
X008305Y005680D01*
X006430Y003805D01*
X005555Y003805D01*
X006580Y003643D02*
X006580Y002805D01*
X007180Y002805D02*
X007180Y001555D01*
X007590Y001559D02*
X007770Y001559D01*
X007770Y001461D02*
X007590Y001461D01*
X007590Y001362D02*
X007770Y001362D01*
X007770Y001264D02*
X007590Y001264D01*
X007587Y001165D02*
X007773Y001165D01*
X007814Y001067D02*
X007546Y001067D01*
X007473Y000968D02*
X007887Y000968D01*
X008473Y000968D02*
X008887Y000968D01*
X008814Y001067D02*
X008546Y001067D01*
X008587Y001165D02*
X008773Y001165D01*
X008770Y001264D02*
X008590Y001264D01*
X008590Y001362D02*
X008770Y001362D01*
X008770Y001461D02*
X008590Y001461D01*
X008590Y001559D02*
X008770Y001559D01*
X008770Y001658D02*
X008590Y001658D01*
X008590Y001756D02*
X008770Y001756D01*
X008770Y001855D02*
X008590Y001855D01*
X008583Y001953D02*
X008777Y001953D01*
X008818Y002052D02*
X008542Y002052D01*
X008465Y002150D02*
X008895Y002150D01*
X009059Y002249D02*
X008301Y002249D01*
X007895Y002150D02*
X007465Y002150D01*
X007542Y002052D02*
X007818Y002052D01*
X007777Y001953D02*
X007583Y001953D01*
X007590Y001855D02*
X007770Y001855D01*
X007770Y001756D02*
X007590Y001756D01*
X007590Y001658D02*
X007770Y001658D01*
X009301Y002249D02*
X010059Y002249D01*
X009895Y002150D02*
X009465Y002150D01*
X009542Y002052D02*
X009818Y002052D01*
X009777Y001953D02*
X009583Y001953D01*
X009590Y001855D02*
X009770Y001855D01*
X009770Y001756D02*
X009590Y001756D01*
X009590Y001658D02*
X009770Y001658D01*
X009770Y001559D02*
X009590Y001559D01*
X009590Y001461D02*
X009770Y001461D01*
X009770Y001362D02*
X009590Y001362D01*
X009590Y001264D02*
X009770Y001264D01*
X009773Y001165D02*
X009587Y001165D01*
X009546Y001067D02*
X009814Y001067D01*
X009887Y000968D02*
X009473Y000968D01*
X010473Y000968D02*
X010867Y000968D01*
X010814Y001067D02*
X010546Y001067D01*
X010587Y001165D02*
X010773Y001165D01*
X010770Y001264D02*
X010590Y001264D01*
X010590Y001362D02*
X010770Y001362D01*
X010770Y001461D02*
X010590Y001461D01*
X010590Y001559D02*
X010770Y001559D01*
X010770Y001658D02*
X010590Y001658D01*
X010590Y001756D02*
X010770Y001756D01*
X010770Y001855D02*
X010590Y001855D01*
X010583Y001953D02*
X010777Y001953D01*
X010818Y002052D02*
X010542Y002052D01*
X010465Y002150D02*
X010895Y002150D01*
X011059Y002249D02*
X010301Y002249D01*
X011180Y001555D02*
X011180Y001055D01*
X010930Y000805D01*
X006118Y000805D01*
X005055Y001868D01*
X005162Y001362D02*
X005334Y001362D01*
X005260Y001264D02*
X005433Y001264D01*
X005359Y001165D02*
X005531Y001165D01*
X005457Y001067D02*
X005630Y001067D01*
X005556Y000968D02*
X005728Y000968D01*
X005654Y000870D02*
X005827Y000870D01*
X006580Y003643D02*
X008618Y005680D01*
X008618Y007680D01*
X006183Y010227D02*
X001118Y010227D01*
X000651Y010720D02*
X000330Y010720D01*
X000330Y010818D02*
X000602Y010818D01*
X000584Y010917D02*
X000330Y010917D01*
X000330Y011015D02*
X000590Y011015D01*
X000631Y011114D02*
X000330Y011114D01*
X000330Y011212D02*
X000722Y011212D01*
X000330Y011311D02*
X005099Y011311D01*
X005013Y011409D02*
X000330Y011409D01*
X001194Y011705D02*
X004804Y011705D01*
X004706Y011803D02*
X001252Y011803D01*
X001276Y011902D02*
X004607Y011902D01*
X004520Y012000D02*
X001276Y012000D01*
X001235Y012099D02*
X004520Y012099D01*
X004520Y012197D02*
X001153Y012197D01*
X001179Y012690D02*
X004520Y012690D01*
X004520Y012788D02*
X001246Y012788D01*
X001276Y012887D02*
X004520Y012887D01*
X004520Y012985D02*
X001276Y012985D01*
X001241Y013084D02*
X004520Y013084D01*
X004520Y013182D02*
X001168Y013182D01*
X001164Y013675D02*
X004520Y013675D01*
X004520Y013773D02*
X001240Y013773D01*
X001276Y013872D02*
X004520Y013872D01*
X004520Y013970D02*
X001276Y013970D01*
X001247Y014069D02*
X004520Y014069D01*
X004520Y014167D02*
X001183Y014167D01*
X001149Y014660D02*
X004520Y014660D01*
X004520Y014758D02*
X001234Y014758D01*
X001274Y014857D02*
X004520Y014857D01*
X004520Y014955D02*
X001276Y014955D01*
X001254Y015054D02*
X004520Y015054D01*
X004520Y015152D02*
X001198Y015152D01*
X001134Y015645D02*
X004520Y015645D01*
X004520Y015743D02*
X001227Y015743D01*
X001268Y015842D02*
X004520Y015842D01*
X004520Y015940D02*
X001276Y015940D01*
X001260Y016039D02*
X004520Y016039D01*
X004520Y016137D02*
X001213Y016137D01*
X001097Y016236D02*
X004520Y016236D01*
X004520Y016334D02*
X000330Y016334D01*
X000330Y016433D02*
X004520Y016433D01*
X004520Y016531D02*
X000330Y016531D01*
X001109Y016630D02*
X004520Y016630D01*
X004520Y016728D02*
X001218Y016728D01*
X001262Y016827D02*
X004520Y016827D01*
X004520Y016925D02*
X001276Y016925D01*
X001266Y017024D02*
X004469Y017024D01*
X004358Y017122D02*
X001225Y017122D01*
X001129Y017221D02*
X004302Y017221D01*
X000330Y018797D02*
X020400Y018797D01*
X020400Y018895D02*
X000330Y018895D01*
X000330Y018994D02*
X020400Y018994D01*
X020400Y018698D02*
X017931Y018698D01*
X018029Y018600D02*
X020400Y018600D01*
X020400Y018501D02*
X018128Y018501D01*
X018226Y018403D02*
X020400Y018403D01*
X020400Y018304D02*
X018325Y018304D01*
X018370Y018206D02*
X020400Y018206D01*
X020400Y018107D02*
X018370Y018107D01*
X018370Y018009D02*
X020400Y018009D01*
X020400Y017910D02*
X018370Y017910D01*
X018370Y017812D02*
X020400Y017812D01*
X020400Y017713D02*
X018370Y017713D01*
X018370Y017615D02*
X020400Y017615D01*
X020400Y017516D02*
X018370Y017516D01*
X018370Y017418D02*
X020400Y017418D01*
X020400Y017319D02*
X018370Y017319D01*
X018370Y017221D02*
X019731Y017221D01*
X019734Y017224D02*
X019636Y017126D01*
X019584Y016999D01*
X019584Y016861D01*
X019636Y016734D01*
X019734Y016636D01*
X019861Y016584D01*
X019999Y016584D01*
X020126Y016636D01*
X020224Y016734D01*
X020276Y016861D01*
X020276Y016999D01*
X020224Y017126D01*
X020126Y017224D01*
X019999Y017276D01*
X019861Y017276D01*
X019734Y017224D01*
X019635Y017122D02*
X018370Y017122D01*
X018370Y017024D02*
X019594Y017024D01*
X019584Y016925D02*
X018370Y016925D01*
X018370Y016827D02*
X019598Y016827D01*
X019642Y016728D02*
X018370Y016728D01*
X018370Y016630D02*
X019751Y016630D01*
X019861Y016276D02*
X019734Y016224D01*
X019636Y016126D01*
X019584Y015999D01*
X019584Y015861D01*
X019636Y015734D01*
X019734Y015636D01*
X019861Y015584D01*
X019999Y015584D01*
X020126Y015636D01*
X020224Y015734D01*
X020276Y015861D01*
X020276Y015999D01*
X020224Y016126D01*
X020126Y016224D01*
X019999Y016276D01*
X019861Y016276D01*
X019763Y016236D02*
X018370Y016236D01*
X018370Y016334D02*
X020400Y016334D01*
X020400Y016236D02*
X020097Y016236D01*
X020213Y016137D02*
X020400Y016137D01*
X020400Y016039D02*
X020260Y016039D01*
X020276Y015940D02*
X020400Y015940D01*
X020400Y015842D02*
X020268Y015842D01*
X020227Y015743D02*
X020400Y015743D01*
X020400Y015645D02*
X020134Y015645D01*
X020400Y015546D02*
X018370Y015546D01*
X018370Y015448D02*
X020400Y015448D01*
X020400Y015349D02*
X018370Y015349D01*
X018370Y015251D02*
X019799Y015251D01*
X019861Y015276D02*
X019734Y015224D01*
X019636Y015126D01*
X019584Y014999D01*
X019584Y014861D01*
X019636Y014734D01*
X019734Y014636D01*
X019861Y014584D01*
X019999Y014584D01*
X020126Y014636D01*
X020224Y014734D01*
X020276Y014861D01*
X020276Y014999D01*
X020224Y015126D01*
X020126Y015224D01*
X019999Y015276D01*
X019861Y015276D01*
X020061Y015251D02*
X020400Y015251D01*
X020400Y015152D02*
X020198Y015152D01*
X020254Y015054D02*
X020400Y015054D01*
X020400Y014955D02*
X020276Y014955D01*
X020274Y014857D02*
X020400Y014857D01*
X020400Y014758D02*
X020234Y014758D01*
X020149Y014660D02*
X020400Y014660D01*
X020400Y014561D02*
X018370Y014561D01*
X018370Y014463D02*
X020400Y014463D01*
X020400Y014364D02*
X018370Y014364D01*
X018370Y014266D02*
X019835Y014266D01*
X019861Y014276D02*
X019734Y014224D01*
X019636Y014126D01*
X019584Y013999D01*
X019584Y013861D01*
X019636Y013734D01*
X019734Y013636D01*
X019861Y013584D01*
X019999Y013584D01*
X020126Y013636D01*
X020224Y013734D01*
X020276Y013861D01*
X020276Y013999D01*
X020224Y014126D01*
X020126Y014224D01*
X019999Y014276D01*
X019861Y014276D01*
X020025Y014266D02*
X020400Y014266D01*
X020400Y014167D02*
X020183Y014167D01*
X020247Y014069D02*
X020400Y014069D01*
X020400Y013970D02*
X020276Y013970D01*
X020276Y013872D02*
X020400Y013872D01*
X020400Y013773D02*
X020240Y013773D01*
X020164Y013675D02*
X020400Y013675D01*
X020400Y013576D02*
X018370Y013576D01*
X018370Y013478D02*
X020400Y013478D01*
X020400Y013379D02*
X018370Y013379D01*
X018370Y013281D02*
X020400Y013281D01*
X020400Y013182D02*
X020168Y013182D01*
X020126Y013224D02*
X019999Y013276D01*
X019861Y013276D01*
X019734Y013224D01*
X019636Y013126D01*
X019584Y012999D01*
X019584Y012861D01*
X019636Y012734D01*
X019734Y012636D01*
X019861Y012584D01*
X019999Y012584D01*
X020126Y012636D01*
X020224Y012734D01*
X020276Y012861D01*
X020276Y012999D01*
X020224Y013126D01*
X020126Y013224D01*
X020241Y013084D02*
X020400Y013084D01*
X020400Y012985D02*
X020276Y012985D01*
X020276Y012887D02*
X020400Y012887D01*
X020400Y012788D02*
X020246Y012788D01*
X020179Y012690D02*
X020400Y012690D01*
X020400Y012591D02*
X020016Y012591D01*
X019844Y012591D02*
X018370Y012591D01*
X018370Y012493D02*
X020400Y012493D01*
X020400Y012394D02*
X018370Y012394D01*
X018370Y012296D02*
X020400Y012296D01*
X020400Y012197D02*
X020153Y012197D01*
X020126Y012224D02*
X020224Y012126D01*
X020276Y011999D01*
X020276Y011861D01*
X020224Y011734D01*
X020126Y011636D01*
X019999Y011584D01*
X019861Y011584D01*
X019734Y011636D01*
X019636Y011734D01*
X019584Y011861D01*
X019584Y011999D01*
X019636Y012126D01*
X019734Y012224D01*
X019861Y012276D01*
X019999Y012276D01*
X020126Y012224D01*
X020235Y012099D02*
X020400Y012099D01*
X020400Y012000D02*
X020276Y012000D01*
X020276Y011902D02*
X020400Y011902D01*
X020400Y011803D02*
X020252Y011803D01*
X020194Y011705D02*
X020400Y011705D01*
X020400Y011606D02*
X020053Y011606D01*
X020400Y011508D02*
X018370Y011508D01*
X018370Y011606D02*
X019807Y011606D01*
X019666Y011705D02*
X018370Y011705D01*
X018370Y011803D02*
X019608Y011803D01*
X019584Y011902D02*
X018370Y011902D01*
X018370Y012000D02*
X019584Y012000D01*
X019625Y012099D02*
X018370Y012099D01*
X018370Y012197D02*
X019707Y012197D01*
X019681Y012690D02*
X018370Y012690D01*
X018370Y012788D02*
X019614Y012788D01*
X019584Y012887D02*
X018370Y012887D01*
X018370Y012985D02*
X019584Y012985D01*
X019619Y013084D02*
X018370Y013084D01*
X018370Y013182D02*
X019692Y013182D01*
X019696Y013675D02*
X018370Y013675D01*
X018370Y013773D02*
X019620Y013773D01*
X019584Y013872D02*
X018370Y013872D01*
X018370Y013970D02*
X019584Y013970D01*
X019613Y014069D02*
X018370Y014069D01*
X018370Y014167D02*
X019677Y014167D01*
X019711Y014660D02*
X018370Y014660D01*
X018370Y014758D02*
X019626Y014758D01*
X019586Y014857D02*
X018370Y014857D01*
X018370Y014955D02*
X019584Y014955D01*
X019606Y015054D02*
X018370Y015054D01*
X018370Y015152D02*
X019662Y015152D01*
X019726Y015645D02*
X018370Y015645D01*
X018370Y015743D02*
X019633Y015743D01*
X019592Y015842D02*
X018370Y015842D01*
X018370Y015940D02*
X019584Y015940D01*
X019600Y016039D02*
X018370Y016039D01*
X018370Y016137D02*
X019647Y016137D01*
X020109Y016630D02*
X020400Y016630D01*
X020400Y016728D02*
X020218Y016728D01*
X020262Y016827D02*
X020400Y016827D01*
X020400Y016925D02*
X020276Y016925D01*
X020266Y017024D02*
X020400Y017024D01*
X020400Y017122D02*
X020225Y017122D01*
X020129Y017221D02*
X020400Y017221D01*
X020400Y016531D02*
X018370Y016531D01*
X018370Y016433D02*
X020400Y016433D01*
X017990Y016433D02*
X017910Y016433D01*
X017910Y016531D02*
X017990Y016531D01*
X017990Y016630D02*
X017910Y016630D01*
X017910Y016728D02*
X017990Y016728D01*
X017990Y016827D02*
X017910Y016827D01*
X017910Y016925D02*
X017990Y016925D01*
X017990Y017024D02*
X017910Y017024D01*
X017910Y016334D02*
X017990Y016334D01*
X017990Y016236D02*
X017910Y016236D01*
X017910Y016137D02*
X017990Y016137D01*
X017990Y016039D02*
X017910Y016039D01*
X017910Y015940D02*
X017990Y015940D01*
X017990Y015842D02*
X017910Y015842D01*
X017990Y015743D02*
X017818Y015743D01*
X017720Y015645D02*
X017990Y015645D01*
X017990Y015546D02*
X017621Y015546D01*
X017523Y015448D02*
X017990Y015448D01*
X018370Y011409D02*
X020400Y011409D01*
X020400Y011311D02*
X018370Y011311D01*
X020118Y010227D02*
X020400Y010227D01*
X020400Y010129D02*
X020221Y010129D01*
X020263Y010030D02*
X020400Y010030D01*
X020400Y009932D02*
X020276Y009932D01*
X020265Y009833D02*
X020400Y009833D01*
X020400Y009735D02*
X020224Y009735D01*
X020125Y009636D02*
X020400Y009636D01*
X020400Y008454D02*
X018370Y008454D01*
X018370Y008356D02*
X020400Y008356D01*
X020400Y008257D02*
X020045Y008257D01*
X019999Y008276D02*
X020126Y008224D01*
X020224Y008126D01*
X020276Y007999D01*
X020276Y007861D01*
X020224Y007734D01*
X020126Y007636D01*
X019999Y007584D01*
X019861Y007584D01*
X019734Y007636D01*
X019636Y007734D01*
X019584Y007861D01*
X019584Y007999D01*
X019636Y008126D01*
X019734Y008224D01*
X019861Y008276D01*
X019999Y008276D01*
X019815Y008257D02*
X018370Y008257D01*
X018370Y008159D02*
X019669Y008159D01*
X019609Y008060D02*
X018370Y008060D01*
X018370Y007962D02*
X019584Y007962D01*
X019584Y007863D02*
X018370Y007863D01*
X018370Y007765D02*
X019624Y007765D01*
X019704Y007666D02*
X018370Y007666D01*
X018370Y007568D02*
X020400Y007568D01*
X020400Y007666D02*
X020156Y007666D01*
X020236Y007765D02*
X020400Y007765D01*
X020400Y007863D02*
X020276Y007863D01*
X020276Y007962D02*
X020400Y007962D01*
X020400Y008060D02*
X020251Y008060D01*
X020191Y008159D02*
X020400Y008159D01*
X020400Y007469D02*
X018370Y007469D01*
X018370Y007371D02*
X020400Y007371D01*
X019699Y006189D02*
X017582Y006189D01*
X017484Y006090D02*
X019622Y006090D01*
X019584Y005992D02*
X017385Y005992D01*
X017287Y005893D02*
X019584Y005893D01*
X019611Y005795D02*
X017188Y005795D01*
X017090Y005696D02*
X019674Y005696D01*
X019714Y005204D02*
X016597Y005204D01*
X016499Y005105D02*
X019628Y005105D01*
X019587Y005007D02*
X016400Y005007D01*
X016302Y004908D02*
X019584Y004908D01*
X019605Y004810D02*
X016203Y004810D01*
X016105Y004711D02*
X019659Y004711D01*
X019792Y004613D02*
X016006Y004613D01*
X015863Y005007D02*
X015832Y005007D01*
X015930Y005105D02*
X015961Y005105D01*
X016029Y005204D02*
X016060Y005204D01*
X016127Y005302D02*
X016158Y005302D01*
X016226Y005401D02*
X016257Y005401D01*
X016324Y005499D02*
X016355Y005499D01*
X016423Y005598D02*
X016454Y005598D01*
X016521Y005696D02*
X016552Y005696D01*
X016620Y005795D02*
X016651Y005795D01*
X016718Y005893D02*
X016749Y005893D01*
X016817Y005992D02*
X016848Y005992D01*
X016915Y006090D02*
X016946Y006090D01*
X017014Y006189D02*
X017045Y006189D01*
X017112Y006287D02*
X017143Y006287D01*
X017211Y006386D02*
X017242Y006386D01*
X017309Y006484D02*
X017340Y006484D01*
X017408Y006583D02*
X017439Y006583D01*
X017506Y006681D02*
X017537Y006681D01*
X017605Y006780D02*
X017636Y006780D01*
X017703Y006878D02*
X017734Y006878D01*
X012180Y001555D02*
X012180Y001180D01*
X011814Y001067D02*
X011546Y001067D01*
X011587Y001165D02*
X011773Y001165D01*
X011770Y001264D02*
X011590Y001264D01*
X011590Y001362D02*
X011770Y001362D01*
X011770Y001461D02*
X011590Y001461D01*
X011590Y001559D02*
X011770Y001559D01*
X011770Y001658D02*
X011590Y001658D01*
X011590Y001756D02*
X011770Y001756D01*
X011770Y001855D02*
X011590Y001855D01*
X011583Y001953D02*
X011777Y001953D01*
X011818Y002052D02*
X011542Y002052D01*
X011465Y002150D02*
X011895Y002150D01*
X012059Y002249D02*
X011301Y002249D01*
X011473Y000968D02*
X011742Y000968D01*
X011643Y000870D02*
X011321Y000870D01*
X006084Y010326D02*
X000330Y010326D01*
X000330Y010424D02*
X005986Y010424D01*
X000714Y008454D02*
X000330Y008454D01*
X000330Y008356D02*
X000628Y008356D01*
X000587Y008257D02*
X000330Y008257D01*
X000330Y008159D02*
X000584Y008159D01*
X000605Y008060D02*
X000330Y008060D01*
X000330Y007962D02*
X000659Y007962D01*
D16*
X015180Y004055D02*
X015180Y001555D01*
X015180Y004055D02*
X018180Y007055D01*
X018180Y018180D01*
X017805Y018555D01*
X015930Y018555D01*
X015680Y018305D01*
X015680Y017680D01*
D17*
X017680Y017680D02*
X017680Y015930D01*
X014555Y012805D01*
X014555Y011055D01*
X011618Y011055D01*
X008930Y008868D02*
X008930Y008430D01*
X010118Y007243D01*
X010118Y006680D01*
X010368Y006430D01*
X011680Y006430D01*
X012055Y006805D01*
X012555Y006805D01*
X013493Y007743D01*
X014555Y007743D01*
X014555Y009930D02*
X014555Y011055D01*
X016805Y010993D02*
X017555Y009993D01*
X017555Y009180D01*
X017555Y007055D01*
X015680Y005180D01*
X013430Y005180D01*
X008930Y008868D02*
X008743Y009055D01*
X008430Y009055D01*
X007680Y008305D01*
X007680Y005743D01*
X006743Y004805D01*
X006055Y004805D01*
X005555Y005305D01*
X005555Y005805D01*
X006430Y010305D02*
X005243Y011493D01*
X006430Y010305D02*
X006930Y010305D01*
M02*
