G75*
%MOIN*%
%OFA0B0*%
%FSLAX24Y24*%
%IPPOS*%
%LPD*%
%AMOC8*
5,1,8,0,0,1.08239X$1,22.5*
%
%ADD10C,0.0000*%
%ADD11C,0.0080*%
%ADD12C,0.0100*%
%ADD13C,0.0060*%
%ADD14R,0.0079X0.0472*%
%ADD15R,0.0472X0.0079*%
%ADD16C,0.0300*%
%ADD17C,0.0050*%
%ADD18R,0.0300X0.0200*%
%ADD19R,0.0300X0.0400*%
%ADD20C,0.0040*%
%ADD21C,0.0079*%
%ADD22C,0.0010*%
%ADD23C,0.0020*%
%ADD24C,0.0197*%
D10*
X000180Y000180D02*
X000180Y019176D01*
X020550Y019176D01*
X020550Y000180D01*
X000180Y000180D01*
D11*
X007589Y005064D02*
X007604Y005062D01*
X007619Y005058D01*
X007633Y005051D01*
X007645Y005041D01*
X007655Y005029D01*
X007662Y005015D01*
X007666Y005000D01*
X007668Y004985D01*
X008692Y004985D01*
X008694Y005000D01*
X008698Y005015D01*
X008705Y005029D01*
X008715Y005041D01*
X008727Y005051D01*
X008741Y005058D01*
X008756Y005062D01*
X008771Y005064D01*
X008771Y006796D02*
X008756Y006798D01*
X008741Y006802D01*
X008727Y006809D01*
X008715Y006819D01*
X008705Y006831D01*
X008698Y006845D01*
X008694Y006860D01*
X008692Y006875D01*
X007668Y006875D01*
X007666Y006860D01*
X007662Y006845D01*
X007655Y006831D01*
X007645Y006819D01*
X007633Y006809D01*
X007619Y006802D01*
X007604Y006798D01*
X007589Y006796D01*
X006698Y008540D02*
X006540Y008698D01*
X006540Y012162D01*
X006698Y012320D01*
X010162Y012320D01*
X010320Y012162D01*
X010320Y008698D01*
X010162Y008540D01*
X006698Y008540D01*
X014406Y005801D02*
X014406Y002809D01*
X014416Y002809D02*
X016454Y002809D01*
X016454Y005801D01*
X014406Y005801D01*
X015989Y003105D02*
X015991Y003128D01*
X015997Y003151D01*
X016006Y003172D01*
X016019Y003192D01*
X016035Y003209D01*
X016053Y003223D01*
X016073Y003234D01*
X016095Y003242D01*
X016118Y003246D01*
X016142Y003246D01*
X016165Y003242D01*
X016187Y003234D01*
X016207Y003223D01*
X016225Y003209D01*
X016241Y003192D01*
X016254Y003172D01*
X016263Y003151D01*
X016269Y003128D01*
X016271Y003105D01*
X016269Y003082D01*
X016263Y003059D01*
X016254Y003038D01*
X016241Y003018D01*
X016225Y003001D01*
X016207Y002987D01*
X016187Y002976D01*
X016165Y002968D01*
X016142Y002964D01*
X016118Y002964D01*
X016095Y002968D01*
X016073Y002976D01*
X016053Y002987D01*
X016035Y003001D01*
X016019Y003018D01*
X016006Y003038D01*
X015997Y003059D01*
X015991Y003082D01*
X015989Y003105D01*
D12*
X009894Y012005D02*
X009896Y012025D01*
X009901Y012045D01*
X009911Y012063D01*
X009923Y012080D01*
X009938Y012094D01*
X009956Y012104D01*
X009975Y012112D01*
X009995Y012116D01*
X010015Y012116D01*
X010035Y012112D01*
X010054Y012104D01*
X010072Y012094D01*
X010087Y012080D01*
X010099Y012063D01*
X010109Y012045D01*
X010114Y012025D01*
X010116Y012005D01*
X010114Y011985D01*
X010109Y011965D01*
X010099Y011947D01*
X010087Y011930D01*
X010072Y011916D01*
X010054Y011906D01*
X010035Y011898D01*
X010015Y011894D01*
X009995Y011894D01*
X009975Y011898D01*
X009956Y011906D01*
X009938Y011916D01*
X009923Y011930D01*
X009911Y011947D01*
X009901Y011965D01*
X009896Y011985D01*
X009894Y012005D01*
D13*
X010953Y010884D02*
X011807Y010884D01*
X011700Y010778D02*
X011700Y010991D01*
X011593Y011098D01*
X011486Y011098D01*
X011380Y010991D01*
X011380Y010778D01*
X011273Y010671D01*
X011166Y010671D01*
X011059Y010778D01*
X011059Y010991D01*
X011166Y011098D01*
X011273Y011315D02*
X011059Y011529D01*
X011700Y011529D01*
X011700Y011742D02*
X011700Y011315D01*
X011700Y010778D02*
X011593Y010671D01*
X011593Y010453D02*
X011059Y010453D01*
X011059Y010026D02*
X011593Y010026D01*
X011700Y010133D01*
X011700Y010347D01*
X011593Y010453D01*
X016245Y009874D02*
X016245Y009236D01*
X016282Y009236D01*
X016599Y009236D02*
X016636Y009236D01*
X016974Y009236D02*
X017011Y009236D01*
X017328Y009236D02*
X017365Y009236D01*
X017365Y009874D01*
X017328Y009874D01*
X017011Y009874D02*
X016599Y009874D01*
X016282Y009874D02*
X016245Y009874D01*
X016245Y011498D02*
X016245Y012112D01*
X017365Y012112D02*
X017365Y011498D01*
X017365Y013486D02*
X017328Y013486D01*
X017365Y013486D02*
X017365Y014124D01*
X017328Y014124D01*
X017011Y014124D02*
X016599Y014124D01*
X016282Y014124D02*
X016245Y014124D01*
X016245Y013486D01*
X016282Y013486D01*
X016599Y013486D02*
X016636Y013486D01*
X016974Y013486D02*
X017011Y013486D01*
X017180Y018430D02*
X016180Y018430D01*
X016180Y019430D01*
X017180Y019430D01*
X018180Y019430D01*
X018180Y018430D01*
X017180Y018430D01*
X017180Y019430D01*
X016180Y019430D02*
X015180Y019430D01*
X014180Y019430D01*
X013180Y019430D01*
X012180Y019430D01*
X011180Y019430D01*
X010180Y019430D01*
X009180Y019430D01*
X008180Y019430D01*
X007180Y019430D01*
X006180Y019430D01*
X005180Y019430D01*
X004180Y019430D01*
X004180Y018430D01*
X005180Y018430D01*
X006180Y018430D01*
X007180Y018430D01*
X008180Y018430D01*
X009180Y018430D01*
X010180Y018430D01*
X011180Y018430D01*
X012180Y018430D01*
X013180Y018430D01*
X014180Y018430D01*
X015180Y018430D01*
X016180Y018430D01*
X015180Y018430D02*
X015180Y019430D01*
X014180Y019430D02*
X014180Y018430D01*
X013180Y018430D02*
X013180Y019430D01*
X012180Y019430D02*
X012180Y018430D01*
X011180Y018430D02*
X011180Y019430D01*
X010180Y019430D02*
X010180Y018430D01*
X009180Y018430D02*
X009180Y019430D01*
X008180Y019430D02*
X008180Y018430D01*
X007180Y018430D02*
X007180Y019430D01*
X006180Y019430D02*
X006180Y018430D01*
X005180Y018430D02*
X005180Y019430D01*
X016245Y007749D02*
X016282Y007749D01*
X016245Y007749D02*
X016245Y007111D01*
X016282Y007111D01*
X016599Y007111D02*
X016636Y007111D01*
X016974Y007111D02*
X017011Y007111D01*
X017328Y007111D02*
X017365Y007111D01*
X017365Y007749D01*
X017328Y007749D01*
X017011Y007749D02*
X016599Y007749D01*
X015430Y002055D02*
X014930Y002055D01*
X014680Y001805D01*
X014430Y002055D01*
X013930Y002055D01*
X013680Y001805D01*
X013680Y001305D01*
X013930Y001055D01*
X014430Y001055D01*
X014680Y001305D01*
X014680Y001805D01*
X014680Y001305D02*
X014930Y001055D01*
X015430Y001055D01*
X015680Y001305D01*
X015680Y001805D01*
X015430Y002055D01*
X013680Y001805D02*
X013680Y001305D01*
X013430Y001055D01*
X012930Y001055D01*
X012680Y001305D01*
X012430Y001055D01*
X011930Y001055D01*
X011680Y001305D01*
X011680Y001805D01*
X011930Y002055D01*
X012430Y002055D01*
X012680Y001805D01*
X012930Y002055D01*
X013430Y002055D01*
X013680Y001805D01*
X012680Y001805D02*
X012680Y001305D01*
X011680Y001305D02*
X011430Y001055D01*
X010930Y001055D01*
X010680Y001305D01*
X010430Y001055D01*
X009930Y001055D01*
X009680Y001305D01*
X009430Y001055D01*
X008930Y001055D01*
X008680Y001305D01*
X008680Y001805D01*
X008930Y002055D01*
X009430Y002055D01*
X009680Y001805D01*
X009930Y002055D01*
X010430Y002055D01*
X010680Y001805D01*
X010930Y002055D01*
X011430Y002055D01*
X011680Y001805D01*
X010680Y001805D02*
X010680Y001305D01*
X009680Y001305D02*
X009680Y001805D01*
X008680Y001805D02*
X008430Y002055D01*
X007930Y002055D01*
X007680Y001805D01*
X007430Y002055D01*
X006930Y002055D01*
X006680Y001805D01*
X006680Y001305D01*
X006930Y001055D01*
X007430Y001055D01*
X007680Y001305D01*
X007680Y001805D01*
X007680Y001305D02*
X007930Y001055D01*
X008430Y001055D01*
X008680Y001305D01*
X004450Y002205D02*
X004450Y005905D01*
X004448Y005928D01*
X004443Y005951D01*
X004434Y005973D01*
X004421Y005993D01*
X004406Y006011D01*
X004388Y006026D01*
X004368Y006039D01*
X004346Y006048D01*
X004323Y006053D01*
X004300Y006055D01*
X003880Y006055D01*
X003480Y006055D01*
X003060Y006055D01*
X003037Y006053D01*
X003014Y006048D01*
X002992Y006039D01*
X002972Y006026D01*
X002954Y006011D01*
X002939Y005993D01*
X002926Y005973D01*
X002917Y005951D01*
X002912Y005928D01*
X002910Y005905D01*
X002910Y002205D01*
X002912Y002182D01*
X002917Y002159D01*
X002926Y002137D01*
X002939Y002117D01*
X002954Y002099D01*
X002972Y002084D01*
X002992Y002071D01*
X003014Y002062D01*
X003037Y002057D01*
X003060Y002055D01*
X004300Y002055D01*
X004323Y002057D01*
X004346Y002062D01*
X004368Y002071D01*
X004388Y002084D01*
X004406Y002099D01*
X004421Y002117D01*
X004434Y002137D01*
X004443Y002159D01*
X004448Y002182D01*
X004450Y002205D01*
X003880Y006055D02*
X003878Y006028D01*
X003873Y006001D01*
X003863Y005975D01*
X003851Y005951D01*
X003835Y005929D01*
X003817Y005909D01*
X003795Y005892D01*
X003772Y005877D01*
X003747Y005867D01*
X003721Y005859D01*
X003694Y005855D01*
X003666Y005855D01*
X003639Y005859D01*
X003613Y005867D01*
X003588Y005877D01*
X003565Y005892D01*
X003543Y005909D01*
X003525Y005929D01*
X003509Y005951D01*
X003497Y005975D01*
X003487Y006001D01*
X003482Y006028D01*
X003480Y006055D01*
D14*
X006954Y008304D03*
X007150Y008304D03*
X007347Y008304D03*
X007544Y008304D03*
X007741Y008304D03*
X007938Y008304D03*
X008135Y008304D03*
X008332Y008304D03*
X008528Y008304D03*
X008725Y008304D03*
X008922Y008304D03*
X009119Y008304D03*
X009316Y008304D03*
X009513Y008304D03*
X009710Y008304D03*
X009906Y008304D03*
X009906Y012556D03*
X009710Y012556D03*
X009513Y012556D03*
X009316Y012556D03*
X009119Y012556D03*
X008922Y012556D03*
X008725Y012556D03*
X008528Y012556D03*
X008332Y012556D03*
X008135Y012556D03*
X007938Y012556D03*
X007741Y012556D03*
X007544Y012556D03*
X007347Y012556D03*
X007150Y012556D03*
X006954Y012556D03*
D15*
X006304Y011906D03*
X006304Y011710D03*
X006304Y011513D03*
X006304Y011316D03*
X006304Y011119D03*
X006304Y010922D03*
X006304Y010725D03*
X006304Y010528D03*
X006304Y010332D03*
X006304Y010135D03*
X006304Y009938D03*
X006304Y009741D03*
X006304Y009544D03*
X006304Y009347D03*
X006304Y009150D03*
X006304Y008954D03*
X010556Y008954D03*
X010556Y009150D03*
X010556Y009347D03*
X010556Y009544D03*
X010556Y009741D03*
X010556Y009938D03*
X010556Y010135D03*
X010556Y010332D03*
X010556Y010528D03*
X010556Y010725D03*
X010556Y010922D03*
X010556Y011119D03*
X010556Y011316D03*
X010556Y011513D03*
X010556Y011710D03*
X010556Y011906D03*
D16*
X010680Y019680D02*
X010680Y021930D01*
X011680Y021930D02*
X011680Y019680D01*
X012680Y019680D02*
X012680Y021930D01*
X013680Y021930D02*
X013680Y019680D01*
X014680Y019680D02*
X014680Y021930D01*
X015680Y021930D02*
X015680Y019680D01*
X016680Y019680D02*
X016680Y021930D01*
X017680Y021930D02*
X017680Y019680D01*
X009680Y019680D02*
X009680Y021930D01*
X008680Y021930D02*
X008680Y019680D01*
X007680Y019680D02*
X007680Y021930D01*
X006680Y021930D02*
X006680Y019680D01*
X005680Y019680D02*
X005680Y021930D01*
X004680Y021930D02*
X004680Y019680D01*
D17*
X003905Y018926D02*
X003905Y018626D01*
X003905Y018776D02*
X003455Y018776D01*
X003605Y018626D01*
X003680Y018466D02*
X003755Y018391D01*
X003755Y018165D01*
X003905Y018165D02*
X003455Y018165D01*
X003455Y018391D01*
X003530Y018466D01*
X003680Y018466D01*
X003455Y018005D02*
X003455Y017855D01*
X003455Y017930D02*
X003830Y017930D01*
X003905Y017855D01*
X003905Y017780D01*
X003830Y017705D01*
X001180Y017180D02*
X001180Y009680D01*
X000680Y009680D01*
X000680Y017180D01*
X001180Y017180D01*
X001180Y008430D02*
X000680Y008430D01*
X000680Y000930D01*
X001180Y000930D01*
X001180Y008430D01*
X006351Y003488D02*
X006509Y003488D01*
X006509Y002622D01*
X006351Y002622D01*
X006351Y003488D01*
X006429Y002472D02*
X006429Y002022D01*
X006579Y002022D02*
X006278Y002022D01*
X006118Y002097D02*
X006043Y002022D01*
X005893Y002022D01*
X005818Y002097D01*
X005818Y002397D01*
X005893Y002472D01*
X006043Y002472D01*
X006118Y002397D01*
X006278Y002322D02*
X006429Y002472D01*
X005661Y002472D02*
X005511Y002472D01*
X005586Y002472D02*
X005586Y002022D01*
X005511Y002022D02*
X005661Y002022D01*
X004226Y001805D02*
X003926Y001805D01*
X003926Y001580D01*
X004076Y001655D01*
X004151Y001655D01*
X004226Y001580D01*
X004226Y001430D01*
X004151Y001355D01*
X004001Y001355D01*
X003926Y001430D01*
X003766Y001430D02*
X003766Y001505D01*
X003691Y001580D01*
X003540Y001580D01*
X003465Y001655D01*
X003465Y001730D01*
X003540Y001805D01*
X003691Y001805D01*
X003766Y001730D01*
X003616Y001880D02*
X003616Y001280D01*
X003540Y001355D02*
X003691Y001355D01*
X003766Y001430D01*
X003540Y001355D02*
X003465Y001430D01*
X003305Y001430D02*
X003305Y001805D01*
X003005Y001805D02*
X003005Y001430D01*
X003080Y001355D01*
X003230Y001355D01*
X003305Y001430D01*
X012354Y000435D02*
X012429Y000360D01*
X012504Y000360D01*
X012579Y000435D01*
X012579Y000810D01*
X012504Y000810D02*
X012654Y000810D01*
X012814Y000810D02*
X013039Y000810D01*
X013114Y000735D01*
X013114Y000585D01*
X013039Y000510D01*
X012814Y000510D01*
X012814Y000360D02*
X012814Y000810D01*
X013275Y000735D02*
X013350Y000810D01*
X013500Y000810D01*
X013575Y000735D01*
X013575Y000660D01*
X013275Y000360D01*
X013575Y000360D01*
X014354Y000435D02*
X014429Y000360D01*
X014504Y000360D01*
X014579Y000435D01*
X014579Y000810D01*
X014504Y000810D02*
X014654Y000810D01*
X014814Y000810D02*
X015039Y000810D01*
X015114Y000735D01*
X015114Y000585D01*
X015039Y000510D01*
X014814Y000510D01*
X014814Y000360D02*
X014814Y000810D01*
X015275Y000735D02*
X015350Y000810D01*
X015500Y000810D01*
X015575Y000735D01*
X015575Y000660D01*
X015500Y000585D01*
X015575Y000510D01*
X015575Y000435D01*
X015500Y000360D01*
X015350Y000360D01*
X015275Y000435D01*
X015425Y000585D02*
X015500Y000585D01*
X014416Y002799D02*
X014416Y002809D01*
X019680Y004680D02*
X019680Y010180D01*
X020180Y010180D01*
X020180Y004680D01*
X019680Y004680D01*
X019680Y011680D02*
X019680Y017180D01*
X020180Y017180D01*
X020180Y011680D01*
X019680Y011680D01*
D18*
X017680Y019530D03*
X016680Y019530D03*
X015680Y019530D03*
X014680Y019530D03*
X013680Y019530D03*
X012680Y019530D03*
X011680Y019530D03*
X010680Y019530D03*
X009680Y019530D03*
X008680Y019530D03*
X007680Y019530D03*
X006680Y019530D03*
X005680Y019530D03*
X004680Y019530D03*
D19*
X004680Y018230D03*
X005680Y018230D03*
X006680Y018230D03*
X007680Y018230D03*
X008680Y018230D03*
X009680Y018230D03*
X010680Y018230D03*
X011680Y018230D03*
X012680Y018230D03*
X013680Y018230D03*
X014680Y018230D03*
X015680Y018230D03*
X016680Y018230D03*
X017680Y018230D03*
D20*
X015785Y016726D02*
X015785Y016573D01*
X015708Y016496D01*
X015401Y016803D01*
X015708Y016803D01*
X015785Y016726D01*
X015708Y016496D02*
X015401Y016496D01*
X015325Y016573D01*
X015325Y016726D01*
X015401Y016803D01*
X015401Y016342D02*
X015325Y016266D01*
X015325Y016112D01*
X015401Y016035D01*
X015401Y015882D02*
X015555Y015882D01*
X015632Y015805D01*
X015632Y015575D01*
X015785Y015575D02*
X015325Y015575D01*
X015325Y015805D01*
X015401Y015882D01*
X015632Y015728D02*
X015785Y015882D01*
X015785Y016035D02*
X015478Y016342D01*
X015401Y016342D01*
X015785Y016342D02*
X015785Y016035D01*
X016575Y015851D02*
X016575Y015698D01*
X016651Y015621D01*
X016651Y015467D02*
X016575Y015391D01*
X016575Y015237D01*
X016651Y015160D01*
X016728Y015160D01*
X016805Y015237D01*
X016805Y015391D01*
X016882Y015467D01*
X016958Y015467D01*
X017035Y015391D01*
X017035Y015237D01*
X016958Y015160D01*
X016958Y015007D02*
X016575Y015007D01*
X016575Y014700D02*
X016958Y014700D01*
X017035Y014777D01*
X017035Y014930D01*
X016958Y015007D01*
X017112Y015314D02*
X016498Y015314D01*
X016575Y015851D02*
X016651Y015928D01*
X016728Y015928D01*
X017035Y015621D01*
X017035Y015928D01*
X017526Y015217D02*
X017450Y015141D01*
X017450Y014987D01*
X017526Y014910D01*
X017603Y014910D01*
X017680Y014987D01*
X017680Y015217D01*
X017833Y015217D02*
X017526Y015217D01*
X017833Y015217D02*
X017910Y015141D01*
X017910Y014987D01*
X017833Y014910D01*
X017833Y014757D02*
X017910Y014680D01*
X017910Y014527D01*
X017833Y014450D01*
X017526Y014450D01*
X017450Y014527D01*
X017450Y014680D01*
X017526Y014757D01*
X018262Y014680D02*
X018262Y014527D01*
X018339Y014450D01*
X018646Y014450D01*
X018723Y014527D01*
X018723Y014680D01*
X018646Y014757D01*
X018723Y014910D02*
X018723Y015217D01*
X018723Y015064D02*
X018262Y015064D01*
X018416Y014910D01*
X018339Y014757D02*
X018262Y014680D01*
X018416Y015371D02*
X018262Y015524D01*
X018723Y015524D01*
X018723Y015371D02*
X018723Y015678D01*
X015910Y015141D02*
X015910Y014987D01*
X015833Y014910D01*
X015757Y014910D01*
X015680Y014987D01*
X015680Y015141D01*
X015757Y015217D01*
X015833Y015217D01*
X015910Y015141D01*
X015680Y015141D02*
X015603Y015217D01*
X015526Y015217D01*
X015450Y015141D01*
X015450Y014987D01*
X015526Y014910D01*
X015603Y014910D01*
X015680Y014987D01*
X015833Y014757D02*
X015910Y014680D01*
X015910Y014527D01*
X015833Y014450D01*
X015526Y014450D01*
X015450Y014527D01*
X015450Y014680D01*
X015526Y014757D01*
X014547Y013896D02*
X014547Y013819D01*
X014470Y013743D01*
X014547Y013666D01*
X014547Y013589D01*
X014470Y013513D01*
X014316Y013513D01*
X014240Y013589D01*
X014086Y013513D02*
X013779Y013513D01*
X013933Y013513D02*
X013933Y013973D01*
X013779Y013819D01*
X013626Y013896D02*
X013549Y013973D01*
X013396Y013973D01*
X013319Y013896D01*
X013319Y013589D01*
X013396Y013513D01*
X013549Y013513D01*
X013626Y013589D01*
X013757Y014194D02*
X013757Y014424D01*
X013680Y014501D01*
X013526Y014501D01*
X013450Y014424D01*
X013450Y014194D01*
X013910Y014194D01*
X013757Y014347D02*
X013910Y014501D01*
X013910Y014654D02*
X013910Y014961D01*
X013910Y014808D02*
X013450Y014808D01*
X013603Y014654D01*
X013680Y015115D02*
X013680Y015422D01*
X013910Y015345D02*
X013450Y015345D01*
X013680Y015115D01*
X012910Y015191D02*
X012833Y015115D01*
X012910Y015191D02*
X012910Y015345D01*
X012833Y015422D01*
X012757Y015422D01*
X012680Y015345D01*
X012680Y015268D01*
X012680Y015345D02*
X012603Y015422D01*
X012526Y015422D01*
X012450Y015345D01*
X012450Y015191D01*
X012526Y015115D01*
X012910Y014961D02*
X012910Y014654D01*
X012910Y014501D02*
X012757Y014347D01*
X012757Y014424D02*
X012680Y014501D01*
X012526Y014501D01*
X012450Y014424D01*
X012450Y014194D01*
X012910Y014194D01*
X012757Y014194D02*
X012757Y014424D01*
X012603Y014654D02*
X012450Y014808D01*
X012910Y014808D01*
X011910Y014808D02*
X011450Y014808D01*
X011603Y014654D01*
X011526Y014501D02*
X011450Y014424D01*
X011450Y014194D01*
X011910Y014194D01*
X011757Y014194D02*
X011757Y014424D01*
X011680Y014501D01*
X011526Y014501D01*
X011757Y014347D02*
X011910Y014501D01*
X011910Y014654D02*
X011910Y014961D01*
X011910Y015115D02*
X011910Y015422D01*
X011910Y015268D02*
X011450Y015268D01*
X011603Y015115D01*
X010910Y015115D02*
X010603Y015422D01*
X010526Y015422D01*
X010450Y015345D01*
X010450Y015191D01*
X010526Y015115D01*
X010450Y014808D02*
X010910Y014808D01*
X010910Y014961D02*
X010910Y014654D01*
X010910Y014501D02*
X010757Y014347D01*
X010757Y014424D02*
X010757Y014194D01*
X010910Y014194D02*
X010450Y014194D01*
X010450Y014424D01*
X010526Y014501D01*
X010680Y014501D01*
X010757Y014424D01*
X010603Y014654D02*
X010450Y014808D01*
X010910Y015115D02*
X010910Y015422D01*
X009910Y015345D02*
X009910Y015191D01*
X009833Y015115D01*
X009526Y015422D01*
X009833Y015422D01*
X009910Y015345D01*
X009833Y015115D02*
X009526Y015115D01*
X009450Y015191D01*
X009450Y015345D01*
X009526Y015422D01*
X009910Y014961D02*
X009910Y014654D01*
X009910Y014501D02*
X009757Y014347D01*
X009757Y014424D02*
X009757Y014194D01*
X009910Y014194D02*
X009450Y014194D01*
X009450Y014424D01*
X009526Y014501D01*
X009680Y014501D01*
X009757Y014424D01*
X009603Y014654D02*
X009450Y014808D01*
X009910Y014808D01*
X008910Y014961D02*
X008757Y014808D01*
X008757Y014884D02*
X008757Y014654D01*
X008910Y014654D02*
X008450Y014654D01*
X008450Y014884D01*
X008526Y014961D01*
X008680Y014961D01*
X008757Y014884D01*
X008833Y015115D02*
X008910Y015191D01*
X008910Y015345D01*
X008833Y015422D01*
X008526Y015422D01*
X008450Y015345D01*
X008450Y015191D01*
X008526Y015115D01*
X008603Y015115D01*
X008680Y015191D01*
X008680Y015422D01*
X007910Y015115D02*
X007833Y015115D01*
X007526Y015422D01*
X007450Y015422D01*
X007450Y015115D01*
X007526Y014961D02*
X007450Y014884D01*
X007450Y014654D01*
X007910Y014654D01*
X007757Y014654D02*
X007757Y014884D01*
X007680Y014961D01*
X007526Y014961D01*
X007757Y014808D02*
X007910Y014961D01*
X006910Y014961D02*
X006757Y014808D01*
X006757Y014884D02*
X006757Y014654D01*
X006910Y014654D02*
X006450Y014654D01*
X006450Y014884D01*
X006526Y014961D01*
X006680Y014961D01*
X006757Y014884D01*
X006757Y015115D02*
X006680Y015191D01*
X006680Y015345D01*
X006757Y015422D01*
X006833Y015422D01*
X006910Y015345D01*
X006910Y015191D01*
X006833Y015115D01*
X006757Y015115D01*
X006680Y015191D02*
X006603Y015115D01*
X006526Y015115D01*
X006450Y015191D01*
X006450Y015345D01*
X006526Y015422D01*
X006603Y015422D01*
X006680Y015345D01*
X003547Y013555D02*
X003240Y013555D01*
X003470Y013785D01*
X003470Y013325D01*
X003547Y013098D02*
X003240Y013098D01*
X003240Y012868D01*
X003393Y012944D01*
X003470Y012944D01*
X003547Y012868D01*
X003547Y012714D01*
X003470Y012638D01*
X003316Y012638D01*
X003240Y012714D01*
X003086Y012638D02*
X002779Y012638D01*
X003086Y012944D01*
X003086Y013021D01*
X003009Y013098D01*
X002856Y013098D01*
X002779Y013021D01*
X002626Y013021D02*
X002549Y013098D01*
X002396Y013098D01*
X002319Y013021D01*
X002319Y012714D01*
X002396Y012638D01*
X002549Y012638D01*
X002626Y012714D01*
X002549Y012410D02*
X002396Y012410D01*
X002319Y012334D01*
X002319Y012027D01*
X002396Y011950D01*
X002549Y011950D01*
X002626Y012027D01*
X002779Y012027D02*
X002856Y011950D01*
X003009Y011950D01*
X003086Y012027D01*
X003086Y012334D01*
X003009Y012410D01*
X002856Y012410D01*
X002779Y012334D01*
X002779Y012257D01*
X002856Y012180D01*
X003086Y012180D01*
X003240Y012103D02*
X003316Y012180D01*
X003470Y012180D01*
X003547Y012103D01*
X003547Y012027D01*
X003470Y011950D01*
X003316Y011950D01*
X003240Y012027D01*
X003240Y012103D01*
X003316Y012180D02*
X003240Y012257D01*
X003240Y012334D01*
X003316Y012410D01*
X003470Y012410D01*
X003547Y012334D01*
X003547Y012257D01*
X003470Y012180D01*
X003470Y011723D02*
X003316Y011723D01*
X003240Y011646D01*
X003240Y011569D01*
X003316Y011493D01*
X003547Y011493D01*
X003547Y011646D02*
X003547Y011339D01*
X003470Y011263D01*
X003316Y011263D01*
X003240Y011339D01*
X003086Y011339D02*
X003009Y011263D01*
X002856Y011263D01*
X002779Y011339D01*
X002626Y011339D02*
X002549Y011263D01*
X002396Y011263D01*
X002319Y011339D01*
X002319Y011646D01*
X002396Y011723D01*
X002549Y011723D01*
X002626Y011646D01*
X002779Y011646D02*
X002779Y011569D01*
X002856Y011493D01*
X003086Y011493D01*
X003086Y011646D02*
X003086Y011339D01*
X003086Y011646D02*
X003009Y011723D01*
X002856Y011723D01*
X002779Y011646D01*
X002933Y010973D02*
X002933Y010513D01*
X003086Y010513D02*
X002779Y010513D01*
X002626Y010589D02*
X002549Y010513D01*
X002396Y010513D01*
X002319Y010589D01*
X002319Y010896D01*
X002396Y010973D01*
X002549Y010973D01*
X002626Y010896D01*
X002779Y010819D02*
X002933Y010973D01*
X003240Y010896D02*
X003240Y010819D01*
X003316Y010743D01*
X003547Y010743D01*
X003547Y010896D02*
X003470Y010973D01*
X003316Y010973D01*
X003240Y010896D01*
X003547Y010896D02*
X003547Y010589D01*
X003470Y010513D01*
X003316Y010513D01*
X003240Y010589D01*
X003316Y010285D02*
X003470Y010285D01*
X003547Y010209D01*
X003547Y010132D01*
X003470Y010055D01*
X003547Y009978D01*
X003547Y009902D01*
X003470Y009825D01*
X003316Y009825D01*
X003240Y009902D01*
X003086Y009825D02*
X002779Y009825D01*
X003086Y010132D01*
X003086Y010209D01*
X003009Y010285D01*
X002856Y010285D01*
X002779Y010209D01*
X002626Y010209D02*
X002549Y010285D01*
X002396Y010285D01*
X002319Y010209D01*
X002319Y009902D01*
X002396Y009825D01*
X002549Y009825D01*
X002626Y009902D01*
X002549Y009598D02*
X002396Y009598D01*
X002319Y009521D01*
X002319Y009214D01*
X002396Y009138D01*
X002549Y009138D01*
X002626Y009214D01*
X002779Y009138D02*
X003086Y009138D01*
X002933Y009138D02*
X002933Y009598D01*
X002779Y009444D01*
X002626Y009521D02*
X002549Y009598D01*
X002549Y008910D02*
X002396Y008910D01*
X002319Y008834D01*
X002319Y008527D01*
X002396Y008450D01*
X002549Y008450D01*
X002626Y008527D01*
X002779Y008450D02*
X003086Y008450D01*
X002933Y008450D02*
X002933Y008910D01*
X002779Y008757D01*
X002626Y008834D02*
X002549Y008910D01*
X002549Y008223D02*
X002396Y008223D01*
X002319Y008146D01*
X002319Y007839D01*
X002396Y007763D01*
X002549Y007763D01*
X002626Y007839D01*
X002779Y007763D02*
X003086Y007763D01*
X002933Y007763D02*
X002933Y008223D01*
X002779Y008069D01*
X002626Y008146D02*
X002549Y008223D01*
X002672Y007660D02*
X002518Y007584D01*
X002365Y007430D01*
X002595Y007430D01*
X002672Y007353D01*
X002672Y007277D01*
X002595Y007200D01*
X002441Y007200D01*
X002365Y007277D01*
X002365Y007430D01*
X002211Y007430D02*
X002211Y007584D01*
X002134Y007660D01*
X001904Y007660D01*
X001904Y007200D01*
X001904Y007353D02*
X002134Y007353D01*
X002211Y007430D01*
X002058Y007353D02*
X002211Y007200D01*
X003154Y007089D02*
X003231Y007013D01*
X003384Y007013D01*
X003461Y007089D01*
X003615Y007243D02*
X003922Y007243D01*
X003845Y007013D02*
X003845Y007473D01*
X003615Y007243D01*
X003461Y007396D02*
X003384Y007473D01*
X003231Y007473D01*
X003154Y007396D01*
X003154Y007089D01*
X003231Y006785D02*
X003154Y006709D01*
X003154Y006402D01*
X003231Y006325D01*
X003384Y006325D01*
X003461Y006402D01*
X003615Y006402D02*
X003691Y006325D01*
X003845Y006325D01*
X003922Y006402D01*
X003922Y006478D01*
X003845Y006555D01*
X003768Y006555D01*
X003845Y006555D02*
X003922Y006632D01*
X003922Y006709D01*
X003845Y006785D01*
X003691Y006785D01*
X003615Y006709D01*
X003461Y006709D02*
X003384Y006785D01*
X003231Y006785D01*
X003316Y007763D02*
X003470Y007763D01*
X003547Y007839D01*
X003547Y007916D01*
X003470Y007993D01*
X003240Y007993D01*
X003240Y007839D01*
X003316Y007763D01*
X003240Y007993D02*
X003393Y008146D01*
X003547Y008223D01*
X003470Y008450D02*
X003470Y008910D01*
X003240Y008680D01*
X003547Y008680D01*
X003470Y009138D02*
X003316Y009138D01*
X003240Y009214D01*
X003240Y009368D02*
X003393Y009444D01*
X003470Y009444D01*
X003547Y009368D01*
X003547Y009214D01*
X003470Y009138D01*
X003240Y009368D02*
X003240Y009598D01*
X003547Y009598D01*
X003470Y010055D02*
X003393Y010055D01*
X003240Y010209D02*
X003316Y010285D01*
X003547Y011646D02*
X003470Y011723D01*
X002626Y012334D02*
X002549Y012410D01*
X002549Y013325D02*
X002396Y013325D01*
X002319Y013402D01*
X002319Y013709D01*
X002396Y013785D01*
X002549Y013785D01*
X002626Y013709D01*
X002779Y013709D02*
X002856Y013785D01*
X003009Y013785D01*
X003086Y013709D01*
X003086Y013632D01*
X002779Y013325D01*
X003086Y013325D01*
X002626Y013402D02*
X002549Y013325D01*
X005935Y007410D02*
X005858Y007334D01*
X005858Y007027D01*
X005935Y006950D01*
X006089Y006950D01*
X006165Y007027D01*
X006165Y007334D01*
X006089Y007410D01*
X005935Y007410D01*
X006319Y007334D02*
X006319Y007257D01*
X006396Y007180D01*
X006549Y007180D01*
X006626Y007103D01*
X006626Y007027D01*
X006549Y006950D01*
X006396Y006950D01*
X006319Y007027D01*
X006319Y007334D02*
X006396Y007410D01*
X006549Y007410D01*
X006626Y007334D01*
X006779Y007334D02*
X006779Y007027D01*
X006856Y006950D01*
X007009Y006950D01*
X007086Y007027D01*
X007240Y006950D02*
X007547Y006950D01*
X007393Y006950D02*
X007393Y007410D01*
X007240Y007257D01*
X007086Y007334D02*
X007009Y007410D01*
X006856Y007410D01*
X006779Y007334D01*
X006026Y006615D02*
X006333Y006308D01*
X006410Y006308D01*
X006410Y006078D02*
X005950Y006078D01*
X006180Y005848D01*
X006180Y006155D01*
X005950Y006308D02*
X005950Y006615D01*
X006026Y006615D01*
X006026Y005694D02*
X005950Y005618D01*
X005950Y005464D01*
X006026Y005388D01*
X006333Y005388D01*
X006410Y005464D01*
X006410Y005618D01*
X006333Y005694D01*
X006328Y005160D02*
X006175Y005160D01*
X006098Y005084D01*
X005944Y005084D02*
X005868Y005160D01*
X005638Y005160D01*
X005638Y004700D01*
X005638Y004853D02*
X005868Y004853D01*
X005944Y004930D01*
X005944Y005084D01*
X005791Y004853D02*
X005944Y004700D01*
X006098Y004700D02*
X006405Y005007D01*
X006405Y005084D01*
X006328Y005160D01*
X006405Y004700D02*
X006098Y004700D01*
X006779Y003910D02*
X007009Y003910D01*
X007086Y003834D01*
X007086Y003680D01*
X007009Y003603D01*
X006779Y003603D01*
X006779Y003450D02*
X006779Y003910D01*
X006933Y003603D02*
X007086Y003450D01*
X007240Y003527D02*
X007316Y003450D01*
X007470Y003450D01*
X007547Y003527D01*
X007547Y003680D01*
X007470Y003757D01*
X007393Y003757D01*
X007240Y003680D01*
X007240Y003910D01*
X007547Y003910D01*
X009575Y004075D02*
X009575Y004535D01*
X009805Y004535D01*
X009882Y004459D01*
X009882Y004305D01*
X009805Y004228D01*
X009575Y004228D01*
X009728Y004228D02*
X009882Y004075D01*
X010035Y004305D02*
X010342Y004305D01*
X010266Y004075D02*
X010266Y004535D01*
X010035Y004305D01*
X010819Y003598D02*
X011049Y003598D01*
X011126Y003521D01*
X011126Y003368D01*
X011049Y003291D01*
X010819Y003291D01*
X010972Y003291D02*
X011126Y003138D01*
X011279Y003138D02*
X011586Y003444D01*
X011586Y003521D01*
X011509Y003598D01*
X011356Y003598D01*
X011279Y003521D01*
X011279Y003138D02*
X011586Y003138D01*
X011740Y003138D02*
X012047Y003444D01*
X012047Y003521D01*
X011970Y003598D01*
X011816Y003598D01*
X011740Y003521D01*
X011740Y003138D02*
X012047Y003138D01*
X012319Y003075D02*
X012319Y003535D01*
X012549Y003535D01*
X012626Y003459D01*
X012626Y003305D01*
X012549Y003228D01*
X012319Y003228D01*
X012472Y003228D02*
X012626Y003075D01*
X012779Y003075D02*
X013086Y003382D01*
X013086Y003459D01*
X013009Y003535D01*
X012856Y003535D01*
X012779Y003459D01*
X012779Y003075D02*
X013086Y003075D01*
X013240Y003075D02*
X013547Y003075D01*
X013393Y003075D02*
X013393Y003535D01*
X013240Y003382D01*
X011859Y005513D02*
X011552Y005513D01*
X011706Y005513D02*
X011706Y005973D01*
X011552Y005819D01*
X011399Y005743D02*
X011399Y005589D01*
X011322Y005513D01*
X011168Y005513D01*
X011092Y005589D01*
X011092Y005743D02*
X011245Y005819D01*
X011322Y005819D01*
X011399Y005743D01*
X011399Y005973D02*
X011092Y005973D01*
X011092Y005743D01*
X010938Y005896D02*
X010862Y005973D01*
X010708Y005973D01*
X010631Y005896D01*
X010631Y005589D01*
X010708Y005513D01*
X010862Y005513D01*
X010938Y005589D01*
X010413Y006575D02*
X010413Y007035D01*
X010183Y006805D01*
X010490Y006805D01*
X010504Y007263D02*
X010657Y007263D01*
X010734Y007339D01*
X010734Y007416D01*
X010657Y007493D01*
X010427Y007493D01*
X010427Y007339D01*
X010504Y007263D01*
X010274Y007263D02*
X009967Y007263D01*
X010274Y007569D01*
X010274Y007646D01*
X010197Y007723D01*
X010043Y007723D01*
X009967Y007646D01*
X009813Y007646D02*
X009737Y007723D01*
X009583Y007723D01*
X009506Y007646D01*
X009506Y007339D01*
X009583Y007263D01*
X009737Y007263D01*
X009813Y007339D01*
X009800Y007035D02*
X009723Y006959D01*
X009800Y007035D02*
X009953Y007035D01*
X010030Y006959D01*
X010030Y006882D01*
X009723Y006575D01*
X010030Y006575D01*
X009569Y006575D02*
X009416Y006728D01*
X009493Y006728D02*
X009263Y006728D01*
X009263Y006575D02*
X009263Y007035D01*
X009493Y007035D01*
X009569Y006959D01*
X009569Y006805D01*
X009493Y006728D01*
X010427Y007493D02*
X010581Y007646D01*
X010734Y007723D01*
X010737Y008450D02*
X010583Y008450D01*
X010506Y008527D01*
X010506Y008834D01*
X010583Y008910D01*
X010737Y008910D01*
X010813Y008834D01*
X010967Y008834D02*
X011043Y008910D01*
X011197Y008910D01*
X011274Y008834D01*
X011274Y008757D01*
X010967Y008450D01*
X011274Y008450D01*
X011427Y008450D02*
X011427Y008527D01*
X011734Y008834D01*
X011734Y008910D01*
X011427Y008910D01*
X010813Y008527D02*
X010737Y008450D01*
X012464Y006535D02*
X012388Y006459D01*
X012388Y006152D01*
X012464Y006075D01*
X012618Y006075D01*
X012694Y006152D01*
X012848Y006152D02*
X012925Y006075D01*
X013078Y006075D01*
X013155Y006152D01*
X013155Y006305D01*
X013078Y006382D01*
X013001Y006382D01*
X012848Y006305D01*
X012848Y006535D01*
X013155Y006535D01*
X013308Y006459D02*
X013385Y006535D01*
X013538Y006535D01*
X013615Y006459D01*
X013615Y006382D01*
X013308Y006075D01*
X013615Y006075D01*
X012694Y006459D02*
X012618Y006535D01*
X012464Y006535D01*
X013152Y008075D02*
X013075Y008152D01*
X013075Y008459D01*
X013152Y008535D01*
X013305Y008535D01*
X013382Y008459D01*
X013535Y008459D02*
X013612Y008535D01*
X013766Y008535D01*
X013842Y008459D01*
X013842Y008382D01*
X013535Y008075D01*
X013842Y008075D01*
X013996Y008152D02*
X013996Y008228D01*
X014073Y008305D01*
X014226Y008305D01*
X014303Y008228D01*
X014303Y008152D01*
X014226Y008075D01*
X014073Y008075D01*
X013996Y008152D01*
X014073Y008305D02*
X013996Y008382D01*
X013996Y008459D01*
X014073Y008535D01*
X014226Y008535D01*
X014303Y008459D01*
X014303Y008382D01*
X014226Y008305D01*
X014396Y008513D02*
X014319Y008589D01*
X014319Y008896D01*
X014396Y008973D01*
X014549Y008973D01*
X014626Y008896D01*
X014779Y008896D02*
X014856Y008973D01*
X015009Y008973D01*
X015086Y008896D01*
X015086Y008819D01*
X015009Y008743D01*
X015086Y008666D01*
X015086Y008589D01*
X015009Y008513D01*
X014856Y008513D01*
X014779Y008589D01*
X014626Y008589D02*
X014549Y008513D01*
X014396Y008513D01*
X014226Y008763D02*
X014303Y008839D01*
X014303Y009146D01*
X014226Y009223D01*
X014073Y009223D01*
X013996Y009146D01*
X013996Y009069D01*
X014073Y008993D01*
X014303Y008993D01*
X014226Y008763D02*
X014073Y008763D01*
X013996Y008839D01*
X013842Y008763D02*
X013535Y008763D01*
X013842Y009069D01*
X013842Y009146D01*
X013766Y009223D01*
X013612Y009223D01*
X013535Y009146D01*
X013382Y009146D02*
X013305Y009223D01*
X013152Y009223D01*
X013075Y009146D01*
X013075Y008839D01*
X013152Y008763D01*
X013305Y008763D01*
X013382Y008839D01*
X013305Y009513D02*
X013382Y009589D01*
X013305Y009513D02*
X013152Y009513D01*
X013075Y009589D01*
X013075Y009896D01*
X013152Y009973D01*
X013305Y009973D01*
X013382Y009896D01*
X013535Y009896D02*
X013612Y009973D01*
X013766Y009973D01*
X013842Y009896D01*
X013842Y009819D01*
X013535Y009513D01*
X013842Y009513D01*
X013842Y010200D02*
X013535Y010200D01*
X013689Y010200D02*
X013689Y010660D01*
X013535Y010507D01*
X013382Y010584D02*
X013305Y010660D01*
X013152Y010660D01*
X013075Y010584D01*
X013075Y010277D01*
X013152Y010200D01*
X013305Y010200D01*
X013382Y010277D01*
X013305Y010825D02*
X013382Y010902D01*
X013305Y010825D02*
X013152Y010825D01*
X013075Y010902D01*
X013075Y011209D01*
X013152Y011285D01*
X013305Y011285D01*
X013382Y011209D01*
X013535Y011209D02*
X013612Y011285D01*
X013766Y011285D01*
X013842Y011209D01*
X013842Y011132D01*
X013766Y011055D01*
X013842Y010978D01*
X013842Y010902D01*
X013766Y010825D01*
X013612Y010825D01*
X013535Y010902D01*
X013689Y011055D02*
X013766Y011055D01*
X013996Y010902D02*
X014073Y010825D01*
X014226Y010825D01*
X014303Y010902D01*
X014303Y011209D01*
X013996Y010902D01*
X013996Y011209D01*
X014073Y011285D01*
X014226Y011285D01*
X014303Y011209D01*
X014303Y011513D02*
X013996Y011513D01*
X014149Y011513D02*
X014149Y011973D01*
X013996Y011819D01*
X013842Y011819D02*
X013766Y011743D01*
X013842Y011666D01*
X013842Y011589D01*
X013766Y011513D01*
X013612Y011513D01*
X013535Y011589D01*
X013382Y011589D02*
X013305Y011513D01*
X013152Y011513D01*
X013075Y011589D01*
X013075Y011896D01*
X013152Y011973D01*
X013305Y011973D01*
X013382Y011896D01*
X013535Y011896D02*
X013612Y011973D01*
X013766Y011973D01*
X013842Y011896D01*
X013842Y011819D01*
X013766Y011743D02*
X013689Y011743D01*
X014319Y012277D02*
X014396Y012200D01*
X014549Y012200D01*
X014626Y012277D01*
X014779Y012200D02*
X015086Y012507D01*
X015086Y012584D01*
X015009Y012660D01*
X014856Y012660D01*
X014779Y012584D01*
X014626Y012584D02*
X014549Y012660D01*
X014396Y012660D01*
X014319Y012584D01*
X014319Y012277D01*
X014779Y012200D02*
X015086Y012200D01*
X015240Y012200D02*
X015547Y012200D01*
X015393Y012200D02*
X015393Y012660D01*
X015240Y012507D01*
X014470Y013743D02*
X014393Y013743D01*
X014240Y013896D02*
X014316Y013973D01*
X014470Y013973D01*
X014547Y013896D01*
X013905Y012973D02*
X013598Y012973D01*
X013598Y012743D01*
X013751Y012819D01*
X013828Y012819D01*
X013905Y012743D01*
X013905Y012589D01*
X013828Y012513D01*
X013675Y012513D01*
X013598Y012589D01*
X013444Y012589D02*
X013368Y012513D01*
X013214Y012513D01*
X013138Y012589D01*
X013138Y012896D01*
X013214Y012973D01*
X013368Y012973D01*
X013444Y012896D01*
X014989Y011115D02*
X014928Y011055D01*
X014928Y010995D01*
X014989Y010935D01*
X015109Y010935D01*
X015169Y010875D01*
X015169Y010815D01*
X015109Y010755D01*
X014989Y010755D01*
X014928Y010815D01*
X015152Y010660D02*
X015075Y010584D01*
X015075Y010277D01*
X015152Y010200D01*
X015305Y010200D01*
X015382Y010277D01*
X015535Y010277D02*
X015612Y010200D01*
X015766Y010200D01*
X015842Y010277D01*
X015842Y010353D01*
X015766Y010430D01*
X015689Y010430D01*
X015766Y010430D02*
X015842Y010507D01*
X015842Y010584D01*
X015766Y010660D01*
X015612Y010660D01*
X015535Y010584D01*
X015382Y010584D02*
X015305Y010660D01*
X015152Y010660D01*
X015297Y010815D02*
X015297Y011055D01*
X015357Y011115D01*
X015477Y011115D01*
X015537Y011055D01*
X015537Y010815D01*
X015477Y010755D01*
X015357Y010755D01*
X015297Y010815D01*
X015169Y011055D02*
X015109Y011115D01*
X014989Y011115D01*
X015665Y011115D02*
X015905Y011115D01*
X015785Y011115D02*
X015785Y010755D01*
X015996Y010584D02*
X016073Y010660D01*
X016226Y010660D01*
X016303Y010584D01*
X016303Y010507D01*
X015996Y010200D01*
X016303Y010200D01*
X016200Y009785D02*
X016200Y009402D01*
X016277Y009325D01*
X016430Y009325D01*
X016507Y009402D01*
X016507Y009785D01*
X016660Y009709D02*
X016737Y009785D01*
X016891Y009785D01*
X016967Y009709D01*
X016891Y009555D02*
X016967Y009478D01*
X016967Y009402D01*
X016891Y009325D01*
X016737Y009325D01*
X016660Y009402D01*
X016737Y009555D02*
X016660Y009632D01*
X016660Y009709D01*
X016737Y009555D02*
X016891Y009555D01*
X016814Y009862D02*
X016814Y009248D01*
X017121Y009555D02*
X017428Y009555D01*
X017351Y009325D02*
X017351Y009785D01*
X017121Y009555D01*
X017527Y010200D02*
X017680Y010200D01*
X017757Y010277D01*
X017910Y010277D02*
X017987Y010200D01*
X018141Y010200D01*
X018217Y010277D01*
X018217Y010353D01*
X018141Y010430D01*
X018064Y010430D01*
X018141Y010430D02*
X018217Y010507D01*
X018217Y010584D01*
X018141Y010660D01*
X017987Y010660D01*
X017910Y010584D01*
X017757Y010584D02*
X017680Y010660D01*
X017527Y010660D01*
X017450Y010584D01*
X017450Y010277D01*
X017527Y010200D01*
X017567Y010755D02*
X017507Y010815D01*
X017507Y010935D01*
X017687Y010935D01*
X017747Y010875D01*
X017747Y010815D01*
X017687Y010755D01*
X017567Y010755D01*
X017507Y010935D02*
X017627Y011055D01*
X017747Y011115D01*
X017379Y010935D02*
X017138Y010935D01*
X017010Y010875D02*
X017010Y010815D01*
X016950Y010755D01*
X016830Y010755D01*
X016770Y010815D01*
X016642Y010755D02*
X016402Y010755D01*
X016642Y010995D01*
X016642Y011055D01*
X016582Y011115D01*
X016462Y011115D01*
X016402Y011055D01*
X016274Y010935D02*
X016033Y010935D01*
X016770Y011055D02*
X016830Y011115D01*
X016950Y011115D01*
X017010Y011055D01*
X017010Y010995D01*
X016950Y010935D01*
X017010Y010875D01*
X016950Y010935D02*
X016890Y010935D01*
X018325Y011902D02*
X018402Y011825D01*
X018555Y011825D01*
X018632Y011902D01*
X018785Y011825D02*
X019092Y012132D01*
X019092Y012209D01*
X019016Y012285D01*
X018862Y012285D01*
X018785Y012209D01*
X018632Y012209D02*
X018555Y012285D01*
X018402Y012285D01*
X018325Y012209D01*
X018325Y011902D01*
X018785Y011825D02*
X019092Y011825D01*
X019246Y011825D02*
X019553Y012132D01*
X019553Y012209D01*
X019476Y012285D01*
X019323Y012285D01*
X019246Y012209D01*
X019246Y011825D02*
X019553Y011825D01*
X019592Y010723D02*
X019285Y010723D01*
X019132Y010646D02*
X019055Y010723D01*
X018902Y010723D01*
X018825Y010646D01*
X018825Y010339D01*
X018902Y010263D01*
X019055Y010263D01*
X019132Y010339D01*
X019285Y010339D02*
X019285Y010263D01*
X019285Y010339D02*
X019592Y010646D01*
X019592Y010723D01*
X018678Y010584D02*
X018678Y010507D01*
X018601Y010430D01*
X018678Y010353D01*
X018678Y010277D01*
X018601Y010200D01*
X018448Y010200D01*
X018371Y010277D01*
X018524Y010430D02*
X018601Y010430D01*
X018678Y010584D02*
X018601Y010660D01*
X018448Y010660D01*
X018371Y010584D01*
X018439Y008535D02*
X018439Y008075D01*
X018592Y008075D02*
X018285Y008075D01*
X018132Y008152D02*
X018055Y008075D01*
X017902Y008075D01*
X017825Y008152D01*
X017825Y008459D01*
X017902Y008535D01*
X018055Y008535D01*
X018132Y008459D01*
X018285Y008382D02*
X018439Y008535D01*
X018746Y008459D02*
X018746Y008382D01*
X018823Y008305D01*
X018976Y008305D01*
X019053Y008228D01*
X019053Y008152D01*
X018976Y008075D01*
X018823Y008075D01*
X018746Y008152D01*
X018746Y008228D01*
X018823Y008305D01*
X018976Y008305D02*
X019053Y008382D01*
X019053Y008459D01*
X018976Y008535D01*
X018823Y008535D01*
X018746Y008459D01*
X019137Y007672D02*
X019214Y007518D01*
X019367Y007365D01*
X019367Y007595D01*
X019444Y007672D01*
X019521Y007672D01*
X019598Y007595D01*
X019598Y007441D01*
X019521Y007365D01*
X019367Y007365D01*
X019214Y007211D02*
X019137Y007134D01*
X019137Y006981D01*
X019214Y006904D01*
X019521Y006904D01*
X019598Y006981D01*
X019598Y007134D01*
X019521Y007211D01*
X019095Y006473D02*
X018941Y006473D01*
X018865Y006396D01*
X018865Y006319D01*
X018941Y006243D01*
X019172Y006243D01*
X019172Y006396D02*
X019095Y006473D01*
X019172Y006396D02*
X019172Y006089D01*
X019095Y006013D01*
X018941Y006013D01*
X018865Y006089D01*
X018711Y006243D02*
X018404Y006243D01*
X018634Y006473D01*
X018634Y006013D01*
X018251Y006089D02*
X018174Y006013D01*
X018021Y006013D01*
X017944Y006089D01*
X017944Y006396D01*
X018021Y006473D01*
X018174Y006473D01*
X018251Y006396D01*
X017553Y006334D02*
X017553Y006257D01*
X017476Y006180D01*
X017553Y006103D01*
X017553Y006027D01*
X017476Y005950D01*
X017323Y005950D01*
X017246Y006027D01*
X017092Y006027D02*
X017016Y005950D01*
X016862Y005950D01*
X016785Y006027D01*
X016632Y006027D02*
X016555Y005950D01*
X016402Y005950D01*
X016325Y006027D01*
X016325Y006410D01*
X016632Y006410D02*
X016632Y006027D01*
X016785Y006257D02*
X016785Y006334D01*
X016862Y006410D01*
X017016Y006410D01*
X017092Y006334D01*
X017246Y006334D02*
X017323Y006410D01*
X017476Y006410D01*
X017553Y006334D01*
X017476Y006180D02*
X017399Y006180D01*
X017092Y006103D02*
X017016Y006180D01*
X016862Y006180D01*
X016785Y006257D01*
X016939Y006487D02*
X016939Y005873D01*
X017092Y006027D02*
X017092Y006103D01*
X016035Y006154D02*
X016035Y006461D01*
X016035Y006308D02*
X015575Y006308D01*
X015728Y006154D01*
X015651Y006001D02*
X015575Y005924D01*
X015575Y005771D01*
X015651Y005694D01*
X015958Y005694D01*
X016035Y005771D01*
X016035Y005924D01*
X015958Y006001D01*
X015958Y006615D02*
X016035Y006615D01*
X015958Y006615D02*
X015651Y006922D01*
X015575Y006922D01*
X015575Y006615D01*
X015223Y006691D02*
X015146Y006615D01*
X014839Y006922D01*
X015146Y006922D01*
X015223Y006845D01*
X015223Y006691D01*
X015146Y006615D02*
X014839Y006615D01*
X014762Y006691D01*
X014762Y006845D01*
X014839Y006922D01*
X014839Y006461D02*
X014762Y006384D01*
X014762Y006231D01*
X014839Y006154D01*
X014839Y006001D02*
X014762Y005924D01*
X014762Y005771D01*
X014839Y005694D01*
X015146Y005694D01*
X015223Y005771D01*
X015223Y005924D01*
X015146Y006001D01*
X015223Y006154D02*
X014916Y006461D01*
X014839Y006461D01*
X015223Y006461D02*
X015223Y006154D01*
X013305Y008075D02*
X013382Y008152D01*
X013305Y008075D02*
X013152Y008075D01*
X014933Y008743D02*
X015009Y008743D01*
X015240Y008743D02*
X015547Y008743D01*
X015470Y008513D02*
X015470Y008973D01*
X015240Y008743D01*
X017271Y004660D02*
X017194Y004584D01*
X017194Y004277D01*
X017271Y004200D01*
X017424Y004200D01*
X017501Y004277D01*
X017654Y004277D02*
X017731Y004200D01*
X017884Y004200D01*
X017961Y004277D01*
X017961Y004430D01*
X017884Y004507D01*
X017808Y004507D01*
X017654Y004430D01*
X017654Y004660D01*
X017961Y004660D01*
X018115Y004584D02*
X018191Y004660D01*
X018345Y004660D01*
X018422Y004584D01*
X018115Y004277D01*
X018191Y004200D01*
X018345Y004200D01*
X018422Y004277D01*
X018422Y004584D01*
X018115Y004584D02*
X018115Y004277D01*
X017501Y004584D02*
X017424Y004660D01*
X017271Y004660D01*
X010819Y003598D02*
X010819Y003138D01*
X010342Y003132D02*
X010266Y003055D01*
X010342Y002978D01*
X010342Y002902D01*
X010266Y002825D01*
X010112Y002825D01*
X010035Y002902D01*
X009882Y002825D02*
X009728Y002978D01*
X009805Y002978D02*
X009575Y002978D01*
X009575Y002825D02*
X009575Y003285D01*
X009805Y003285D01*
X009882Y003209D01*
X009882Y003055D01*
X009805Y002978D01*
X010035Y003209D02*
X010112Y003285D01*
X010266Y003285D01*
X010342Y003209D01*
X010342Y003132D01*
X010266Y003055D02*
X010189Y003055D01*
X010842Y012450D02*
X010842Y012910D01*
X011072Y012910D01*
X011149Y012834D01*
X011149Y012680D01*
X011072Y012603D01*
X010842Y012603D01*
X010995Y012603D02*
X011149Y012450D01*
X011302Y012450D02*
X011609Y012450D01*
X011456Y012450D02*
X011456Y012910D01*
X011302Y012757D01*
D21*
X017258Y012002D03*
D22*
X015400Y005048D02*
X015425Y005023D01*
X015425Y004973D01*
X015400Y004948D01*
X015400Y004901D02*
X015425Y004876D01*
X015425Y004826D01*
X015400Y004801D01*
X015300Y004801D01*
X015275Y004826D01*
X015275Y004876D01*
X015300Y004901D01*
X015300Y004948D02*
X015275Y004973D01*
X015275Y005023D01*
X015300Y005048D01*
X015325Y005048D01*
X015350Y005023D01*
X015375Y005048D01*
X015400Y005048D01*
X015350Y005023D02*
X015350Y004998D01*
X015425Y004753D02*
X015425Y004703D01*
X015425Y004728D02*
X015275Y004728D01*
X015275Y004703D02*
X015275Y004753D01*
X015300Y004656D02*
X015275Y004631D01*
X015275Y004581D01*
X015300Y004556D01*
X015400Y004556D01*
X015425Y004581D01*
X015425Y004631D01*
X015400Y004656D01*
X015300Y004656D01*
X015300Y004508D02*
X015275Y004483D01*
X015275Y004433D01*
X015300Y004408D01*
X015325Y004408D01*
X015350Y004433D01*
X015350Y004483D01*
X015375Y004508D01*
X015400Y004508D01*
X015425Y004483D01*
X015425Y004433D01*
X015400Y004408D01*
X015425Y004360D02*
X015425Y004310D01*
X015425Y004335D02*
X015275Y004335D01*
X015275Y004310D02*
X015275Y004360D01*
D23*
X003050Y006055D02*
X003050Y002055D01*
D24*
X006912Y002522D03*
M02*
