G75*
%MOIN*%
%OFA0B0*%
%FSLAX24Y24*%
%IPPOS*%
%LPD*%
%AMOC8*
5,1,8,0,0,1.08239X$1,22.5*
%
%ADD10C,0.0000*%
%ADD11R,0.0158X0.0512*%
%ADD12R,0.0512X0.0158*%
%ADD13C,0.0640*%
%ADD14R,0.0473X0.0434*%
%ADD15R,0.0434X0.0473*%
%ADD16R,0.0631X0.0670*%
%ADD17C,0.0512*%
%ADD18R,0.0257X0.0512*%
%ADD19R,0.0276X0.0394*%
%ADD20R,0.0640X0.0205*%
%ADD21C,0.0092*%
%ADD22R,0.0840X0.0300*%
%ADD23C,0.0197*%
D10*
X000180Y000180D02*
X000180Y019176D01*
X020550Y019176D01*
X020550Y000180D01*
X000180Y000180D01*
D11*
X006954Y008186D03*
X007150Y008186D03*
X007347Y008186D03*
X007544Y008186D03*
X007741Y008186D03*
X007938Y008186D03*
X008135Y008186D03*
X008332Y008186D03*
X008528Y008186D03*
X008725Y008186D03*
X008922Y008186D03*
X009119Y008186D03*
X009316Y008186D03*
X009513Y008186D03*
X009710Y008186D03*
X009906Y008186D03*
X009906Y012674D03*
X009710Y012674D03*
X009513Y012674D03*
X009316Y012674D03*
X009119Y012674D03*
X008922Y012674D03*
X008725Y012674D03*
X008528Y012674D03*
X008332Y012674D03*
X008135Y012674D03*
X007938Y012674D03*
X007741Y012674D03*
X007544Y012674D03*
X007347Y012674D03*
X007150Y012674D03*
X006954Y012674D03*
D12*
X006186Y011906D03*
X006186Y011710D03*
X006186Y011513D03*
X006186Y011316D03*
X006186Y011119D03*
X006186Y010922D03*
X006186Y010725D03*
X006186Y010528D03*
X006186Y010332D03*
X006186Y010135D03*
X006186Y009938D03*
X006186Y009741D03*
X006186Y009544D03*
X006186Y009347D03*
X006186Y009150D03*
X006186Y008954D03*
X010674Y008954D03*
X010674Y009150D03*
X010674Y009347D03*
X010674Y009544D03*
X010674Y009741D03*
X010674Y009938D03*
X010674Y010135D03*
X010674Y010332D03*
X010674Y010528D03*
X010674Y010725D03*
X010674Y010922D03*
X010674Y011119D03*
X010674Y011316D03*
X010674Y011513D03*
X010674Y011710D03*
X010674Y011906D03*
D13*
X010680Y017380D02*
X010680Y017980D01*
X011680Y017980D02*
X011680Y017380D01*
X012680Y017380D02*
X012680Y017980D01*
X013680Y017980D02*
X013680Y017380D01*
X014680Y017380D02*
X014680Y017980D01*
X015680Y017980D02*
X015680Y017380D01*
X016680Y017380D02*
X016680Y017980D01*
X017680Y017980D02*
X017680Y017380D01*
X009680Y017380D02*
X009680Y017980D01*
X008680Y017980D02*
X008680Y017380D01*
X007680Y017380D02*
X007680Y017980D01*
X006680Y017980D02*
X006680Y017380D01*
X005680Y017380D02*
X005680Y017980D01*
X004680Y017980D02*
X004680Y017380D01*
X007180Y001855D02*
X007180Y001255D01*
X008180Y001255D02*
X008180Y001855D01*
X009180Y001855D02*
X009180Y001255D01*
X010180Y001255D02*
X010180Y001855D01*
X011180Y001855D02*
X011180Y001255D01*
X012180Y001255D02*
X012180Y001855D01*
X013180Y001855D02*
X013180Y001255D01*
X014180Y001255D02*
X014180Y001855D01*
X015180Y001855D02*
X015180Y001255D01*
D14*
X012930Y003970D03*
X012930Y004640D03*
X012243Y004640D03*
X012243Y003970D03*
X009180Y003720D03*
X009180Y003140D03*
X009180Y002470D03*
X009180Y004390D03*
X010908Y007493D03*
X011577Y007493D03*
X011577Y008180D03*
X012095Y008180D03*
X012095Y008868D03*
X012765Y008868D03*
X012765Y008180D03*
X012765Y009618D03*
X012765Y010305D03*
X012765Y011055D03*
X012765Y011743D03*
X012095Y011743D03*
X011930Y012408D03*
X011930Y013077D03*
X012095Y011055D03*
X012095Y010305D03*
X012095Y009618D03*
X010908Y008180D03*
X004765Y007993D03*
X004095Y007993D03*
X004095Y008680D03*
X004765Y008680D03*
X004765Y009368D03*
X004095Y009368D03*
X004095Y010055D03*
X004765Y010055D03*
X004765Y010743D03*
X004095Y010743D03*
X004095Y011493D03*
X004765Y011493D03*
X004765Y012180D03*
X004095Y012180D03*
X004095Y012868D03*
X004765Y012868D03*
X004765Y013555D03*
X004095Y013555D03*
X006680Y015845D03*
X006680Y016515D03*
X007680Y016515D03*
X007680Y015845D03*
X008680Y015845D03*
X008680Y016515D03*
X009680Y016515D03*
X009680Y015845D03*
X010680Y015845D03*
X010680Y016515D03*
X011680Y016515D03*
X011680Y015845D03*
X012680Y015845D03*
X012680Y016515D03*
X013680Y016515D03*
X013680Y015845D03*
X014680Y015845D03*
X014680Y016515D03*
X004765Y007243D03*
X004095Y007243D03*
X004095Y006555D03*
X004765Y006555D03*
D15*
X002890Y006805D03*
X002220Y006805D03*
X006033Y004305D03*
X006702Y004305D03*
X007220Y004305D03*
X007890Y004305D03*
X006930Y005283D03*
X006930Y005952D03*
X010908Y006805D03*
X011577Y006805D03*
X012243Y005827D03*
X012243Y005158D03*
X012930Y005158D03*
X012930Y005827D03*
X014993Y007095D03*
X014993Y007765D03*
X015680Y007765D03*
X015680Y007095D03*
X015680Y009220D03*
X015680Y009890D03*
X014993Y009890D03*
X014993Y009220D03*
X015680Y011470D03*
X015680Y012140D03*
X015680Y013470D03*
X015680Y014140D03*
X014993Y014140D03*
X014993Y013470D03*
X012743Y013077D03*
X012743Y012408D03*
X017930Y012140D03*
X017930Y011470D03*
X017930Y009890D03*
X017930Y009220D03*
X018618Y009220D03*
X018618Y009890D03*
X018618Y007765D03*
X018618Y007095D03*
X017930Y007095D03*
X017930Y007765D03*
X017930Y005640D03*
X017930Y004970D03*
X018618Y004970D03*
X018618Y005640D03*
X018618Y013470D03*
X018618Y014140D03*
X017930Y014140D03*
X017930Y013470D03*
D16*
X008633Y006422D03*
X007727Y006422D03*
X007727Y005438D03*
X008633Y005438D03*
D17*
X000930Y005180D03*
X000930Y006180D03*
X000930Y007180D03*
X000930Y008180D03*
X000930Y009930D03*
X000930Y010930D03*
X000930Y011930D03*
X000930Y012930D03*
X000930Y013930D03*
X000930Y014930D03*
X000930Y015930D03*
X000930Y016930D03*
X000930Y004180D03*
X000930Y003180D03*
X000930Y002180D03*
X000930Y001180D03*
X019930Y004930D03*
X019930Y005930D03*
X019930Y006930D03*
X019930Y007930D03*
X019930Y008930D03*
X019930Y009930D03*
X019930Y011930D03*
X019930Y012930D03*
X019930Y013930D03*
X019930Y014930D03*
X019930Y015930D03*
X019930Y016930D03*
D18*
X017179Y014317D03*
X016431Y014317D03*
X016431Y013293D03*
X016805Y013293D03*
X017179Y013293D03*
X017179Y010067D03*
X016431Y010067D03*
X016431Y009043D03*
X016805Y009043D03*
X017179Y009043D03*
X017179Y007942D03*
X016431Y007942D03*
X016431Y006918D03*
X016805Y006918D03*
X017179Y006918D03*
D19*
X017179Y011352D03*
X016805Y011352D03*
X016431Y011352D03*
X016431Y012258D03*
X016805Y012258D03*
X017179Y012258D03*
D20*
X016857Y003153D03*
D21*
X017131Y003353D02*
X017131Y003465D01*
X017131Y003353D02*
X016583Y003353D01*
X016583Y003465D01*
X017131Y003465D01*
X017131Y003444D02*
X016583Y003444D01*
X017131Y003609D02*
X017131Y003721D01*
X017131Y003609D02*
X016583Y003609D01*
X016583Y003721D01*
X017131Y003721D01*
X017131Y003700D02*
X016583Y003700D01*
X017131Y003865D02*
X017131Y003977D01*
X017131Y003865D02*
X016583Y003865D01*
X016583Y003977D01*
X017131Y003977D01*
X017131Y003956D02*
X016583Y003956D01*
X017131Y004121D02*
X017131Y004233D01*
X017131Y004121D02*
X016583Y004121D01*
X016583Y004233D01*
X017131Y004233D01*
X017131Y004212D02*
X016583Y004212D01*
X017131Y004377D02*
X017131Y004489D01*
X017131Y004377D02*
X016583Y004377D01*
X016583Y004489D01*
X017131Y004489D01*
X017131Y004468D02*
X016583Y004468D01*
X017131Y004633D02*
X017131Y004745D01*
X017131Y004633D02*
X016583Y004633D01*
X016583Y004745D01*
X017131Y004745D01*
X017131Y004724D02*
X016583Y004724D01*
X017131Y004889D02*
X017131Y005001D01*
X017131Y004889D02*
X016583Y004889D01*
X016583Y005001D01*
X017131Y005001D01*
X017131Y004980D02*
X016583Y004980D01*
X017131Y005145D02*
X017131Y005257D01*
X017131Y005145D02*
X016583Y005145D01*
X016583Y005257D01*
X017131Y005257D01*
X017131Y005236D02*
X016583Y005236D01*
X017131Y005401D02*
X017131Y005513D01*
X017131Y005401D02*
X016583Y005401D01*
X016583Y005513D01*
X017131Y005513D01*
X017131Y005492D02*
X016583Y005492D01*
X014277Y005513D02*
X014277Y005401D01*
X013729Y005401D01*
X013729Y005513D01*
X014277Y005513D01*
X014277Y005492D02*
X013729Y005492D01*
X014277Y005257D02*
X014277Y005145D01*
X013729Y005145D01*
X013729Y005257D01*
X014277Y005257D01*
X014277Y005236D02*
X013729Y005236D01*
X014277Y005001D02*
X014277Y004889D01*
X013729Y004889D01*
X013729Y005001D01*
X014277Y005001D01*
X014277Y004980D02*
X013729Y004980D01*
X014277Y004745D02*
X014277Y004633D01*
X013729Y004633D01*
X013729Y004745D01*
X014277Y004745D01*
X014277Y004724D02*
X013729Y004724D01*
X014277Y004489D02*
X014277Y004377D01*
X013729Y004377D01*
X013729Y004489D01*
X014277Y004489D01*
X014277Y004468D02*
X013729Y004468D01*
X014277Y004233D02*
X014277Y004121D01*
X013729Y004121D01*
X013729Y004233D01*
X014277Y004233D01*
X014277Y004212D02*
X013729Y004212D01*
X014277Y003977D02*
X014277Y003865D01*
X013729Y003865D01*
X013729Y003977D01*
X014277Y003977D01*
X014277Y003956D02*
X013729Y003956D01*
X014277Y003721D02*
X014277Y003609D01*
X013729Y003609D01*
X013729Y003721D01*
X014277Y003721D01*
X014277Y003700D02*
X013729Y003700D01*
X014277Y003465D02*
X014277Y003353D01*
X013729Y003353D01*
X013729Y003465D01*
X014277Y003465D01*
X014277Y003444D02*
X013729Y003444D01*
X014277Y003209D02*
X014277Y003097D01*
X013729Y003097D01*
X013729Y003209D01*
X014277Y003209D01*
X014277Y003188D02*
X013729Y003188D01*
D22*
X004890Y003305D03*
X004890Y002805D03*
X004890Y002305D03*
X004890Y003805D03*
X004890Y004305D03*
X004890Y004805D03*
X004890Y005305D03*
X004890Y005805D03*
X002470Y005805D03*
X002470Y005305D03*
X002470Y004805D03*
X002470Y004305D03*
X002470Y003805D03*
X002470Y003305D03*
X002470Y002805D03*
X002470Y002305D03*
D23*
X005928Y002799D02*
X005928Y002799D01*
X006106Y002799D01*
X006106Y002799D01*
X005928Y002799D01*
X005928Y003055D02*
X005928Y003055D01*
X006106Y003055D01*
X006106Y003055D01*
X005928Y003055D01*
X005928Y003311D02*
X005928Y003311D01*
X006106Y003311D01*
X006106Y003311D01*
X005928Y003311D01*
X006754Y003311D02*
X006754Y003311D01*
X006932Y003311D01*
X006932Y003311D01*
X006754Y003311D01*
X006754Y003055D02*
X006754Y003055D01*
X006932Y003055D01*
X006932Y003055D01*
X006754Y003055D01*
X006754Y002799D02*
X006754Y002799D01*
X006932Y002799D01*
X006932Y002799D01*
X006754Y002799D01*
M02*
