G75*
%MOIN*%
%OFA0B0*%
%FSLAX24Y24*%
%IPPOS*%
%LPD*%
%AMOC8*
5,1,8,0,0,1.08239X$1,22.5*
%
%ADD10C,0.0000*%
%ADD11C,0.0060*%
%ADD12C,0.0050*%
D10*
X000180Y000180D02*
X000180Y019176D01*
X020550Y019176D01*
X020550Y000180D01*
X000180Y000180D01*
D11*
X006230Y002505D02*
X006230Y003105D01*
X006232Y003122D01*
X006236Y003139D01*
X006243Y003155D01*
X006253Y003169D01*
X006266Y003182D01*
X006280Y003192D01*
X006296Y003199D01*
X006313Y003203D01*
X006330Y003205D01*
X008030Y003205D01*
X008047Y003203D01*
X008064Y003199D01*
X008080Y003192D01*
X008094Y003182D01*
X008107Y003169D01*
X008117Y003155D01*
X008124Y003139D01*
X008128Y003122D01*
X008130Y003105D01*
X008130Y002505D01*
X008128Y002488D01*
X008124Y002471D01*
X008117Y002455D01*
X008107Y002441D01*
X008094Y002428D01*
X008080Y002418D01*
X008064Y002411D01*
X008047Y002407D01*
X008030Y002405D01*
X006330Y002405D01*
X006313Y002407D01*
X006296Y002411D01*
X006280Y002418D01*
X006266Y002428D01*
X006253Y002441D01*
X006243Y002455D01*
X006236Y002471D01*
X006232Y002488D01*
X006230Y002505D01*
D12*
X006440Y002280D02*
X006590Y002280D01*
X006665Y002205D01*
X006826Y002280D02*
X006976Y002280D01*
X006901Y002280D02*
X006901Y001905D01*
X006976Y001830D01*
X007051Y001830D01*
X007126Y001905D01*
X007286Y001905D02*
X007361Y001830D01*
X007511Y001830D01*
X007586Y001905D01*
X007511Y002055D02*
X007361Y002055D01*
X007286Y001980D01*
X007286Y001905D01*
X007286Y002205D02*
X007361Y002280D01*
X007511Y002280D01*
X007586Y002205D01*
X007586Y002130D01*
X007511Y002055D01*
X006665Y001830D02*
X006365Y002130D01*
X006365Y002205D01*
X006440Y002280D01*
X006365Y001830D02*
X006665Y001830D01*
M02*
