G75*
%MOIN*%
%OFA0B0*%
%FSLAX24Y24*%
%IPPOS*%
%LPD*%
%AMOC8*
5,1,8,0,0,1.08239X$1,22.5*
%
%ADD10C,0.0000*%
%ADD11C,0.0640*%
%ADD12C,0.0512*%
%ADD13R,0.0500X0.0670*%
D10*
X000180Y000180D02*
X000180Y019176D01*
X020550Y019176D01*
X020550Y000180D01*
X000180Y000180D01*
D11*
X007180Y001255D02*
X007180Y001855D01*
X008180Y001855D02*
X008180Y001255D01*
X009180Y001255D02*
X009180Y001855D01*
X010180Y001855D02*
X010180Y001255D01*
X011180Y001255D02*
X011180Y001855D01*
X012180Y001855D02*
X012180Y001255D01*
X013180Y001255D02*
X013180Y001855D01*
X014180Y001855D02*
X014180Y001255D01*
X015180Y001255D02*
X015180Y001855D01*
X014680Y017380D02*
X014680Y017980D01*
X013680Y017980D02*
X013680Y017380D01*
X012680Y017380D02*
X012680Y017980D01*
X011680Y017980D02*
X011680Y017380D01*
X010680Y017380D02*
X010680Y017980D01*
X009680Y017980D02*
X009680Y017380D01*
X008680Y017380D02*
X008680Y017980D01*
X007680Y017980D02*
X007680Y017380D01*
X006680Y017380D02*
X006680Y017980D01*
X005680Y017980D02*
X005680Y017380D01*
X004680Y017380D02*
X004680Y017980D01*
X015680Y017980D02*
X015680Y017380D01*
X016680Y017380D02*
X016680Y017980D01*
X017680Y017980D02*
X017680Y017380D01*
D12*
X019930Y016930D03*
X019930Y015930D03*
X019930Y014930D03*
X019930Y013930D03*
X019930Y012930D03*
X019930Y011930D03*
X019930Y009930D03*
X019930Y008930D03*
X019930Y007930D03*
X019930Y006930D03*
X019930Y005930D03*
X019930Y004930D03*
X000930Y005180D03*
X000930Y006180D03*
X000930Y007180D03*
X000930Y008180D03*
X000930Y009930D03*
X000930Y010930D03*
X000930Y011930D03*
X000930Y012930D03*
X000930Y013930D03*
X000930Y014930D03*
X000930Y015930D03*
X000930Y016930D03*
X000930Y004180D03*
X000930Y003180D03*
X000930Y002180D03*
X000930Y001180D03*
D13*
X006580Y002805D03*
X007180Y002805D03*
X007780Y002805D03*
M02*
